<?xml version='1.0' encoding='utf-8'?>
<svg xmlns="http://www.w3.org/2000/svg" width="1920" height="1080" viewBox="0 0 1920 1080" data-theme="dark">
  <style>
        @font-face {
            font-family: 'Inter';
            src: url('assets/fonts/Inter-Regular.ttf') format('truetype');
            font-weight: 400;
            font-style: normal;
            font-display: swap;
        }
        @font-face {
            font-family: 'Inter';
            src: url('assets/fonts/Inter-Bold.ttf') format('truetype');
            font-weight: 600;
            font-style: normal;
            font-display: swap;
        }
        @font-face {
            font-family: 'Inter';
            src: url('assets/fonts/Inter-Bold.ttf') format('truetype');
            font-weight: 800;
            font-style: normal;
            font-display: swap;
        }
        
:root {
    --background: #0f172a;
    --panel: #1e293b;
    --primary-text: #f1f5f9;
    --muted-text: #94a3b8;
    --inverse-text: #0f172a;
    --border: #334155;
    --shadow-color: #000000;
    --icon-pad-bg: #1e293b;
    --art-glow: #7dd3fc;
    --art-glow-opacity: 0.18;
    --art-sheen: #ffffff;
    --art-sheen-opacity: 0.18;
    --art-shadow: #000000;
    --art-shadow-opacity: 0.28;
    --art-muted-line: #64748b;
    --art-panel-tint: #1e293b;
    --font-family: 'Inter', 'Segoe UI', 'Kalam', Roboto, Helvetica, Arial, sans-serif;
    --radius-xl: 16px;
    --font-family-headline: 'Inter', 'Segoe UI', 'Kalam', Roboto, Helvetica, Arial, sans-serif;
    --font-family-body: 'Inter', 'Segoe UI', 'Kalam', Roboto, Helvetica, Arial, sans-serif;
    --font-heading: 'Inter', 'Segoe UI', 'Kalam', Roboto, Helvetica, Arial, sans-serif;
    --font-body: 'Inter', 'Segoe UI', 'Kalam', Roboto, Helvetica, Arial, sans-serif;
    --font-size-h1: 56px;
    --font-size-h2: 40px;
    --font-size-h3: 28px;
    --font-size-body: 24px;
    --font-size-caption: 18px;
    --secondary-text: var(--muted-text);
    --panel-border: var(--border);
    --font-weight-normal: 400;
    --font-weight-medium: 500;
    --font-weight-semibold: 600;
    --font-weight-bold: 700;
    --spacing-gutter-pct: 0.07;
    --spacing-top-pct: 0.15;
    --spacing-bottom-pct: 0.07;
    --spacing-title-y-pct: 0.055;
    --accent-1: #22d3ee;
    --accent-2: #f472b6;
    --accent-3: #facc15;
    --accent-4: #a3e635;
    --accent-5: #fb923c;
    --accent-6: #c084fc;
}
:root[data-theme="dark"] {
    --background: #0f172a;
    --panel: #1e293b;
    --primary-text: #f1f5f9;
    --muted-text: #94a3b8;
    --inverse-text: #0f172a;
    --border: #334155;
    --shadow-color: #000000;
    --icon-pad-bg: #1e293b;
    --art-glow: #7dd3fc;
    --art-glow-opacity: 0.18;
    --art-sheen: #ffffff;
    --art-sheen-opacity: 0.18;
    --art-shadow: #000000;
    --art-shadow-opacity: 0.28;
    --art-muted-line: #64748b;
    --art-panel-tint: #1e293b;
    --accent-1: #22d3ee;
    --accent-2: #f472b6;
    --accent-3: #facc15;
    --accent-4: #a3e635;
    --accent-5: #fb923c;
    --accent-6: #c084fc;
}
:root[data-theme="light"] {
    --background: #f8fafc;
    --panel: #ffffff;
    --primary-text: #0f172a;
    --muted-text: #64748b;
    --inverse-text: #ffffff;
    --border: #e2e8f0;
    --shadow-color: #000000;
    --icon-pad-bg: #1e293b;
    --art-glow: #0891b2;
    --art-glow-opacity: 0.10;
    --art-sheen: #ffffff;
    --art-sheen-opacity: 0.34;
    --art-shadow: #0f172a;
    --art-shadow-opacity: 0.14;
    --art-muted-line: #94a3b8;
    --art-panel-tint: #f1f5f9;
    --accent-1: #0891b2;
    --accent-2: #db2777;
    --accent-3: #ca8a04;
    --accent-4: #65a30d;
    --accent-5: #ea580c;
    --accent-6: #9333ea;
}</style>
  <rect x="0" y="0" width="1.92E+3" height="1.08E+3" fill="#252a34" stroke="none" id="programmatic_background"/>
  <line id="HEADER_DECOR" x1="960.0" x2="1080.0" y1="90.0" y2="90.0" stroke="var(--accent-1)" stroke-width="6" stroke-linecap="round"/>
  <defs>
    <pattern id="svge52818db-napkin-hatch" patternUnits="userSpaceOnUse" width="12" height="12">
      <path d="M -3 12 L 12 -3 M 0 15 L 15 0" fill="none" stroke="var(--primary-text)" stroke-width="1" stroke-opacity="0.05"/>
    </pattern>
    <filter id="svge52818db-shadow" x="-30%" y="-30%" width="160%" height="160%">
      <feDropShadow dx="0" dy="4" stdDeviation="5" flood-color="#000000" flood-opacity="0.15"/>
    </filter>
    <radialGradient id="svge52818db-sun-glow" cx="50%" cy="50%" r="50%">
      <stop offset="0%" stop-color="var(--accent-3)" stop-opacity="0.8"/>
      <stop offset="60%" stop-color="var(--accent-3)" stop-opacity="0.4"/>
      <stop offset="100%" stop-color="var(--accent-3)" stop-opacity="0"/>
    </radialGradient>
    <radialGradient id="svge52818db-universal-edge-vignette" cx="50%" cy="50%" r="72%">
      <stop offset="0%" stop-color="var(--background)" stop-opacity="0"/>
      <stop offset="72%" stop-color="var(--background)" stop-opacity="0.12"/>
      <stop offset="100%" stop-color="var(--primary-text)" stop-opacity="0.08"/>
    </radialGradient>
    <linearGradient id="svge52818db-universal-surface-sheen" x1="0%" y1="0%" x2="100%" y2="100%">
      <stop offset="0%" stop-color="var(--art-sheen)" stop-opacity="var(--art-sheen-opacity)"/>
      <stop offset="46%" stop-color="var(--art-sheen)" stop-opacity="0.035"/>
      <stop offset="100%" stop-color="var(--art-panel-tint)" stop-opacity="0.14"/>
    </linearGradient>
    <radialGradient id="svge52818db-universal-icon-aura" cx="50%" cy="42%" r="64%">
      <stop offset="0%" stop-color="var(--art-glow)" stop-opacity="var(--art-glow-opacity)"/>
      <stop offset="100%" stop-color="var(--background)" stop-opacity="0"/>
    </radialGradient>
    <linearGradient id="svge52818db-orbit-card-sheen" x1="0%" y1="0%" x2="100%" y2="100%">
      <stop offset="0%" stop-color="var(--inverse-text)" stop-opacity="0.16"/>
      <stop offset="100%" stop-color="var(--background)" stop-opacity="0.16"/>
    </linearGradient>
    <filter id="svge52818db-text-glow" x="-20%" y="-20%" width="140%" height="140%">
      <feDropShadow dx="0" dy="0" stdDeviation="2" flood-color="#000000" flood-opacity="0.4"/>
    </filter>
    <marker id="svge52818db-arrowhead" markerWidth="10" markerHeight="7" refX="9" refY="3.5" orient="auto" markerUnits="strokeWidth">
      <polygon points="0 0, 10 3.5, 0 7" fill="var(--muted-text)" opacity="0.6"/>
    </marker>
  </defs>
  <rect width="100%" height="100%" fill="var(--background)" id="CANVAS_BG"/>
  <rect width="100%" height="100%" fill="url(#svge52818db-napkin-hatch)"/>
  <rect id="UNIVERSAL_EDGE_VIGNETTE" width="100%" height="100%" fill="url(#svge52818db-universal-edge-vignette)" opacity="0.62"/>
  <rect id="TITLE_FRAME" x="134" y="25" width="1652" height="70" fill="none"/>
  <text id="TITLE" x="960.0" y="59" font-size="48" font-weight="700" fill="#f1f5f9" text-anchor="middle" style="font-size: 60px; font-family: Inter, Segoe UI, Kalam, Roboto, Helvetica, Arial, sans-serif; font-weight: 700; letter-spacing:-1.2px;" data-final-font-size="60">
    <tspan x="960.0" dy="68.00px">RAND Policy Recommendations for UAP</tspan>
  </text>
  <g id="DIAGRAM_MAIN">
    <!-- Star Glow -->
    <circle cx="-150" cy="540" r="400" fill="url(#svge52818db-sun-glow)"/>
    <!-- The Star -->
    <circle cx="-150" cy="540" r="250" fill="var(--panel)" stroke="var(--accent-3)" stroke-width="4" filter="url(#svge52818db-shadow)"/>
    <path d="M -300 410 C -220 350 -80 350 20 420" fill="none" stroke="var(--inverse-text)" stroke-width="7" stroke-opacity="0.10" stroke-linecap="round"/>
    <path d="M -356 590 C -250 680 -76 688 70 588" fill="none" stroke="var(--background)" stroke-width="10" stroke-opacity="0.18" stroke-linecap="round"/>
    <path d="M -300 410 C -220 350 -80 350 20 420" fill="none" stroke="var(--inverse-text)" stroke-width="7" stroke-opacity="0.10" stroke-linecap="round"/>
    <path d="M -356 590 C -250 680 -76 688 70 588" fill="none" stroke="var(--background)" stroke-width="10" stroke-opacity="0.18" stroke-linecap="round"/>
    <path d="M -300 410 C -220 350 -80 350 20 420" fill="none" stroke="var(--inverse-text)" stroke-width="7" stroke-opacity="0.10" stroke-linecap="round"/>
    <path d="M -356 590 C -250 680 -76 688 70 588" fill="none" stroke="var(--background)" stroke-width="10" stroke-opacity="0.18" stroke-linecap="round"/>
    <path d="M -300 410 C -220 350 -80 350 20 420" fill="none" stroke="var(--inverse-text)" stroke-width="7" stroke-opacity="0.10" stroke-linecap="round"/>
    <path d="M -356 590 C -250 680 -76 688 70 588" fill="none" stroke="var(--background)" stroke-width="10" stroke-opacity="0.18" stroke-linecap="round"/>
    <path d="M -300 410 C -220 350 -80 350 20 420" fill="none" stroke="var(--inverse-text)" stroke-width="7" stroke-opacity="0.10" stroke-linecap="round"/>
    <path d="M -356 590 C -250 680 -76 688 70 588" fill="none" stroke="var(--background)" stroke-width="10" stroke-opacity="0.18" stroke-linecap="round"/>
    <path d="M -300 410 C -220 350 -80 350 20 420" fill="none" stroke="var(--inverse-text)" stroke-width="7" stroke-opacity="0.10" stroke-linecap="round"/>
    <path d="M -356 590 C -250 680 -76 688 70 588" fill="none" stroke="var(--background)" stroke-width="10" stroke-opacity="0.18" stroke-linecap="round"/>
    <path d="M -300 410 C -220 350 -80 350 20 420" fill="none" stroke="var(--inverse-text)" stroke-width="7" stroke-opacity="0.10" stroke-linecap="round"/>
    <path d="M -356 590 C -250 680 -76 688 70 588" fill="none" stroke="var(--background)" stroke-width="10" stroke-opacity="0.18" stroke-linecap="round"/>
    <path d="M -300 410 C -220 350 -80 350 20 420" fill="none" stroke="var(--inverse-text)" stroke-width="7" stroke-opacity="0.10" stroke-linecap="round"/>
    <path d="M -356 590 C -250 680 -76 688 70 588" fill="none" stroke="var(--background)" stroke-width="10" stroke-opacity="0.18" stroke-linecap="round"/>
    <path d="M -300 410 C -220 350 -80 350 20 420" fill="none" stroke="var(--inverse-text)" stroke-width="7" stroke-opacity="0.10" stroke-linecap="round"/>
    <path d="M -356 590 C -250 680 -76 688 70 588" fill="none" stroke="var(--background)" stroke-width="10" stroke-opacity="0.18" stroke-linecap="round"/>
    <path d="M -300 410 C -220 350 -80 350 20 420" fill="none" stroke="var(--inverse-text)" stroke-width="7" stroke-opacity="0.10" stroke-linecap="round"/>
    <path d="M -356 590 C -250 680 -76 688 70 588" fill="none" stroke="var(--background)" stroke-width="10" stroke-opacity="0.18" stroke-linecap="round"/>
    <path d="M -300 410 C -220 350 -80 350 20 420" fill="none" stroke="var(--inverse-text)" stroke-width="7" stroke-opacity="0.10" stroke-linecap="round"/>
    <path d="M -356 590 C -250 680 -76 688 70 588" fill="none" stroke="var(--background)" stroke-width="10" stroke-opacity="0.18" stroke-linecap="round"/>
    <path d="M -300 410 C -220 350 -80 350 20 420" fill="none" stroke="var(--inverse-text)" stroke-width="7" stroke-opacity="0.10" stroke-linecap="round"/>
    <path d="M -356 590 C -250 680 -76 688 70 588" fill="none" stroke="var(--background)" stroke-width="10" stroke-opacity="0.18" stroke-linecap="round"/>
    <path d="M -300 410 C -220 350 -80 350 20 420" fill="none" stroke="var(--inverse-text)" stroke-width="7" stroke-opacity="0.10" stroke-linecap="round"/>
    <path d="M -356 590 C -250 680 -76 688 70 588" fill="none" stroke="var(--background)" stroke-width="10" stroke-opacity="0.18" stroke-linecap="round"/>
    <path d="M -300 410 C -220 350 -80 350 20 420" fill="none" stroke="var(--inverse-text)" stroke-width="7" stroke-opacity="0.10" stroke-linecap="round"/>
    <path d="M -356 590 C -250 680 -76 688 70 588" fill="none" stroke="var(--background)" stroke-width="10" stroke-opacity="0.18" stroke-linecap="round"/>
    <path d="M -300 410 C -220 350 -80 350 20 420" fill="none" stroke="var(--inverse-text)" stroke-width="7" stroke-opacity="0.10" stroke-linecap="round"/>
    <path d="M -356 590 C -250 680 -76 688 70 588" fill="none" stroke="var(--background)" stroke-width="10" stroke-opacity="0.18" stroke-linecap="round"/>
    <path d="M -300 410 C -220 350 -80 350 20 420" fill="none" stroke="var(--inverse-text)" stroke-width="7" stroke-opacity="0.10" stroke-linecap="round"/>
    <path d="M -356 590 C -250 680 -76 688 70 588" fill="none" stroke="var(--background)" stroke-width="10" stroke-opacity="0.18" stroke-linecap="round"/>
    <path d="M -300 410 C -220 350 -80 350 20 420" fill="none" stroke="var(--inverse-text)" stroke-width="7" stroke-opacity="0.10" stroke-linecap="round"/>
    <path d="M -356 590 C -250 680 -76 688 70 588" fill="none" stroke="var(--background)" stroke-width="10" stroke-opacity="0.18" stroke-linecap="round"/>
    <path d="M -300 410 C -220 350 -80 350 20 420" fill="none" stroke="var(--inverse-text)" stroke-width="7" stroke-opacity="0.10" stroke-linecap="round"/>
    <path d="M -356 590 C -250 680 -76 688 70 588" fill="none" stroke="var(--background)" stroke-width="10" stroke-opacity="0.18" stroke-linecap="round"/>
    <path d="M -300 410 C -220 350 -80 350 20 420" fill="none" stroke="var(--inverse-text)" stroke-width="7" stroke-opacity="0.10" stroke-linecap="round"/>
    <path d="M -356 590 C -250 680 -76 688 70 588" fill="none" stroke="var(--background)" stroke-width="10" stroke-opacity="0.18" stroke-linecap="round"/>
    <path d="M -300 410 C -220 350 -80 350 20 420" fill="none" stroke="var(--inverse-text)" stroke-width="7" stroke-opacity="0.10" stroke-linecap="round"/>
    <path d="M -356 590 C -250 680 -76 688 70 588" fill="none" stroke="var(--background)" stroke-width="10" stroke-opacity="0.18" stroke-linecap="round"/>
    <path d="M -300 410 C -220 350 -80 350 20 420" fill="none" stroke="var(--inverse-text)" stroke-width="7" stroke-opacity="0.10" stroke-linecap="round"/>
    <path d="M -356 590 C -250 680 -76 688 70 588" fill="none" stroke="var(--background)" stroke-width="10" stroke-opacity="0.18" stroke-linecap="round"/>
    <path d="M -300 410 C -220 350 -80 350 20 420" fill="none" stroke="var(--inverse-text)" stroke-width="7" stroke-opacity="0.10" stroke-linecap="round"/>
    <path d="M -356 590 C -250 680 -76 688 70 588" fill="none" stroke="var(--background)" stroke-width="10" stroke-opacity="0.18" stroke-linecap="round"/>
    <path d="M -300 410 C -220 350 -80 350 20 420" fill="none" stroke="var(--inverse-text)" stroke-width="7" stroke-opacity="0.10" stroke-linecap="round"/>
    <path d="M -356 590 C -250 680 -76 688 70 588" fill="none" stroke="var(--background)" stroke-width="10" stroke-opacity="0.18" stroke-linecap="round"/>
    <path d="M -300 410 C -220 350 -80 350 20 420" fill="none" stroke="var(--inverse-text)" stroke-width="7" stroke-opacity="0.10" stroke-linecap="round"/>
    <path d="M -356 590 C -250 680 -76 688 70 588" fill="none" stroke="var(--background)" stroke-width="10" stroke-opacity="0.18" stroke-linecap="round"/>
    <path d="M -300 410 C -220 350 -80 350 20 420" fill="none" stroke="var(--inverse-text)" stroke-width="7" stroke-opacity="0.10" stroke-linecap="round"/>
    <path d="M -356 590 C -250 680 -76 688 70 588" fill="none" stroke="var(--background)" stroke-width="10" stroke-opacity="0.18" stroke-linecap="round"/>
    <path d="M -300 410 C -220 350 -80 350 20 420" fill="none" stroke="var(--inverse-text)" stroke-width="7" stroke-opacity="0.10" stroke-linecap="round"/>
    <path d="M -356 590 C -250 680 -76 688 70 588" fill="none" stroke="var(--background)" stroke-width="10" stroke-opacity="0.18" stroke-linecap="round"/>
    <path d="M -300 410 C -220 350 -80 350 20 420" fill="none" stroke="var(--inverse-text)" stroke-width="7" stroke-opacity="0.10" stroke-linecap="round"/>
    <path d="M -356 590 C -250 680 -76 688 70 588" fill="none" stroke="var(--background)" stroke-width="10" stroke-opacity="0.18" stroke-linecap="round"/>
    <path d="M -300 410 C -220 350 -80 350 20 420" fill="none" stroke="var(--inverse-text)" stroke-width="7" stroke-opacity="0.10" stroke-linecap="round"/>
    <path d="M -356 590 C -250 680 -76 688 70 588" fill="none" stroke="var(--background)" stroke-width="10" stroke-opacity="0.18" stroke-linecap="round"/>
    <path d="M -300 410 C -220 350 -80 350 20 420" fill="none" stroke="var(--inverse-text)" stroke-width="7" stroke-opacity="0.10" stroke-linecap="round"/>
    <path d="M -356 590 C -250 680 -76 688 70 588" fill="none" stroke="var(--background)" stroke-width="10" stroke-opacity="0.18" stroke-linecap="round"/>
    <circle cx="-150" cy="540" r="350.0" fill="none" stroke="var(--muted-text)" stroke-width="2" stroke-dasharray="12 8" opacity="0.4"/>
    <circle cx="-150" cy="540" r="533.3333333333334" fill="none" stroke="var(--muted-text)" stroke-width="2" stroke-dasharray="12 8" opacity="0.4"/>
    <circle cx="-150" cy="540" r="716.6666666666667" fill="none" stroke="var(--muted-text)" stroke-width="2" stroke-dasharray="12 8" opacity="0.4"/>
    <circle cx="-150" cy="540" r="900.0" fill="none" stroke="var(--muted-text)" stroke-width="2" stroke-dasharray="12 8" opacity="0.4"/>
    <g transform="translate(153.10889132455355, 365.0)">
      <circle id="ITEM_1_BORDER" cx="0" cy="0" r="37" fill="var(--background)" stroke="var(--accent-1)" stroke-width="3"/>
      <circle id="ITEM_1_STROKE" cx="0" cy="0" r="45" fill="transparent" stroke="var(--accent-5)" stroke-width="3" stroke-dasharray="6 4" stroke-opacity="1.0"/>
      <circle id="ITEM_1_PAD" cx="0.00" cy="0.00" r="40.00" fill="var(--icon-pad-bg)" stroke="var(--primary-text)" stroke-width="2" opacity="0.9"/>
      <circle id="ITEM_1_PAD_INNER" cx="0.00" cy="0.00" r="31.20" fill="var(--accent-5)" fill-opacity="0.22"/>
      <g id="ITEM_1_ICON" transform="translate(-25, -25)" data-icon-size="50" stroke-dasharray="6 4">
        <g transform="translate(-10.65714285714286,-10.1) scale(2.2285714285714286)">
          <path d="M25.0642 23.4047L23.9155 20.598L22.2011 21.2996L23.3511 24.1097L23.3525 24.113C23.5183 24.5137 23.3281 24.9545 22.9426 25.1096L18.0368 27.1219L18.0342 27.123C17.6335 27.2888 17.1927 27.0987 17.0376 26.7132L15.8855 23.898L14.1711 24.5997L15.3202 27.4074C15.8659 28.7594 17.403 29.3881 18.741 28.8353L18.7425 28.8347L23.6372 26.8268C24.9889 26.281 25.6173 24.7444 25.065 23.4066L25.0642 23.4047ZM8 23.5L9.70824 26.7789C10.3282 27.4289 10.2982 28.4589 9.63824 29.0689C8.98824 29.6789 7.95824 29.6489 7.34824 28.9989L2.43824 23.7889C1.82824 23.1389 1.85824 22.1089 2.50824 21.4989C3.15824 20.8889 4.18824 20.9189 4.79824 21.5689L8 23.5Z" fill="#FFB02E"/>
          <path d="M29.2283 15.0788L17.6783 2.82884C16.4083 1.47884 14.1783 1.82887 13.3883 3.50887L4.79834 21.5689L9.76834 26.8389L28.3083 19.3288C30.0183 18.6388 30.4983 16.4288 29.2283 15.0788Z" fill="#F9C23C"/>
        </g>
      </g>
    </g>
    <!-- Elbow Connector from Node to Text Column -->
    <path id="ITEM_1_CONN" d="M 193.10889132455355 365.0 L 1220 220.0 L 1240 220.0" fill="transparent" stroke="var(--accent-5)" stroke-width="3" stroke-dasharray="6 7" opacity="0.46" stroke-linecap="round" stroke-opacity="1.0"/>
    <circle id="ITEM_1_DOT" cx="1240" cy="220.0" r="5.5" fill="var(--accent-5)" fill-opacity="1.0"/>
    <!-- Rigid text block -->
    <rect id="ITEM_1_TEXT_BG" x="1232.0" y="154.0" width="656.0" height="172.0" rx="16" fill="var(--panel)" fill-opacity="0.94" stroke="var(--primary-text)" stroke-opacity="0.12" stroke-width="1.5"/>
    <rect x="1244.0" y="154.0" width="632.0" height="172.0" rx="14" fill="url(#svge52818db-orbit-card-sheen)" opacity="0.86"/>
    <text id="ITEM_1_HEAD" data-bg-id="ITEM_1_TEXT_BG" x="1250.0" y="170.0" font-weight="bold" font-size="28" fill="var(--accent-5)" text-anchor="start" fill-opacity="1.0" stroke="none" style="font-size: 30px; font-family: Inter, Segoe UI, Kalam, Roboto, Helvetica, Arial, sans-serif; font-weight: 700; letter-spacing:-0.4px;" data-final-font-size="30">
      <tspan x="1250.0" dy="30.75px">Public Awareness</tspan>
    </text>
    <rect id="ITEM_1_HEAD_FRAME" x="1250" y="170.0" width="620" height="45" fill="none"/>
    <text id="ITEM_1_BODY" data-bg-id="ITEM_1_TEXT_BG" x="1250.0" y="220.0" font-size="20" fill="var(--primary-text)" text-anchor="start" style="font-size: 26px; font-family: Inter, Segoe UI, Kalam, Roboto, Helvetica, Arial, sans-serif; font-weight: 400;" data-final-font-size="26">
      <tspan x="1250.0" dy="26.84px">Inform residents about nearby military</tspan>
      <tspan x="1250.0" dy="29.90px">training and exercises</tspan>
    </text>
    <rect id="ITEM_1_BODY_FRAME" x="1250" y="220.0" width="620" height="90" fill="none"/>
    <g transform="translate(375.230801606511, 447.3876385776372)">
      <circle id="ITEM_2_BORDER" cx="0" cy="0" r="37" fill="var(--background)" stroke="var(--accent-2)" stroke-width="3"/>
      <circle id="ITEM_2_STROKE" cx="0" cy="0" r="45" fill="transparent" stroke="var(--accent-6)" stroke-width="3" stroke-dasharray="6 4" stroke-opacity="1.0"/>
      <circle id="ITEM_2_PAD" cx="0.00" cy="0.00" r="40.00" fill="var(--icon-pad-bg)" stroke="var(--primary-text)" stroke-width="2" opacity="0.9"/>
      <circle id="ITEM_2_PAD_INNER" cx="0.00" cy="0.00" r="31.20" fill="var(--accent-6)" fill-opacity="0.22"/>
      <g id="ITEM_2_ICON" transform="translate(-25, -25)" data-icon-size="50" stroke-dasharray="6 4">
        <g transform="translate(-10.657142857142858,-10.65714285714286) scale(2.2285714285714286)">
          <path d="M5 4.5C5 3.67157 5.67157 3 6.5 3H25.5C26.3284 3 27 3.67157 27 4.5V28.5C27 29.3284 26.3284 30 25.5 30H6.5C5.67157 30 5 29.3284 5 28.5V4.5Z" fill="#E19747"/>
          <path d="M25 6C25 5.44772 24.5523 5 24 5H8C7.44772 5 7 5.44772 7 6V27C7 27.5523 7.44772 28 8 28H18.5858C18.7327 28 18.8764 27.9677 19.0071 27.9069L19.3282 27.1239L19.96 23.0379L24.4166 22.255L24.9064 22.0082C24.9675 21.8772 25 21.7332 25 21.5858V6Z" fill="#F3EEF8"/>
          <path d="M24.9102 22H20C19.4477 22 19 22.4477 19 23V27.9102C19.108 27.861 19.2074 27.7926 19.2929 27.7071L24.7071 22.2929C24.7926 22.2074 24.861 22.108 24.9102 22Z" fill="#CDC4D6"/>
          <path d="M18 4C18 2.89543 17.1046 2 16 2C14.8954 2 14 2.89543 14 4H13C11.8954 4 11 4.89543 11 6V7.5C11 7.77614 11.2239 8 11.5 8H20.5C20.7761 8 21 7.77614 21 7.5V6C21 4.89543 20.1046 4 19 4H18ZM17 4C17 4.55228 16.5523 5 16 5C15.4477 5 15 4.55228 15 4C15 3.44772 15.4477 3 16 3C16.5523 3 17 3.44772 17 4Z" fill="#9B9B9B"/>
          <path d="M9 12.5C9 12.2239 9.22386 12 9.5 12H22.5C22.7761 12 23 12.2239 23 12.5C23 12.7761 22.7761 13 22.5 13H9.5C9.22386 13 9 12.7761 9 12.5Z" fill="#9B9B9B"/>
          <path d="M9 15.5C9 15.2239 9.22386 15 9.5 15H22.5C22.7761 15 23 15.2239 23 15.5C23 15.7761 22.7761 16 22.5 16H9.5C9.22386 16 9 15.7761 9 15.5Z" fill="#9B9B9B"/>
          <path d="M9.5 18C9.22386 18 9 18.2239 9 18.5C9 18.7761 9.22386 19 9.5 19H22.5C22.7761 19 23 18.7761 23 18.5C23 18.2239 22.7761 18 22.5 18H9.5Z" fill="#9B9B9B"/>
          <path d="M9 21.5C9 21.2239 9.22386 21 9.5 21H17.5C17.7761 21 18 21.2239 18 21.5C18 21.7761 17.7761 22 17.5 22H9.5C9.22386 22 9 21.7761 9 21.5Z" fill="#9B9B9B"/>
        </g>
      </g>
    </g>
    <!-- Elbow Connector from Node to Text Column -->
    <path id="ITEM_2_CONN" d="M 415.230801606511 447.3876385776372 L 1220 453.33333333333337 L 1240 453.33333333333337" fill="transparent" stroke="var(--accent-6)" stroke-width="3" stroke-dasharray="6 7" opacity="0.46" stroke-linecap="round" stroke-opacity="1.0"/>
    <circle id="ITEM_2_DOT" cx="1240" cy="453.33333333333337" r="5.5" fill="var(--accent-6)" fill-opacity="1.0"/>
    <!-- Rigid text block -->
    <rect id="ITEM_2_TEXT_BG" x="1232.0" y="387.3" width="656.0" height="172.0" rx="16" fill="var(--panel)" fill-opacity="0.94" stroke="var(--primary-text)" stroke-opacity="0.12" stroke-width="1.5"/>
    <rect x="1244.0" y="387.3" width="632.0" height="172.0" rx="14" fill="url(#svge52818db-orbit-card-sheen)" opacity="0.86"/>
    <text id="ITEM_2_HEAD" data-bg-id="ITEM_2_TEXT_BG" x="1250.0" y="403.33333333333337" font-weight="bold" font-size="28" fill="var(--accent-6)" text-anchor="start" fill-opacity="1.0" stroke="none" style="font-size: 30px; font-family: Inter, Segoe UI, Kalam, Roboto, Helvetica, Arial, sans-serif; font-weight: 700; letter-spacing:-0.4px;" data-final-font-size="30">
      <tspan x="1250.0" dy="30.75px">System Development</tspan>
    </text>
    <rect id="ITEM_2_HEAD_FRAME" x="1250" y="403.33333333333337" width="620" height="45" fill="none"/>
    <text id="ITEM_2_BODY" data-bg-id="ITEM_2_TEXT_BG" x="1250.0" y="453.33333333333337" font-size="20" fill="var(--primary-text)" text-anchor="start" style="font-size: 26px; font-family: Inter, Segoe UI, Kalam, Roboto, Helvetica, Arial, sans-serif; font-weight: 400;" data-final-font-size="26">
      <tspan x="1250.0" dy="26.84px">Create a standardized public reporting system</tspan>
      <tspan x="1250.0" dy="29.90px">for sightings</tspan>
    </text>
    <rect id="ITEM_2_BODY_FRAME" x="1250" y="453.33333333333337" width="620" height="90" fill="none"/>
    <g transform="translate(555.7788896587491, 664.4478606613001)">
      <circle id="ITEM_3_BORDER" cx="0" cy="0" r="37" fill="var(--background)" stroke="var(--accent-3)" stroke-width="3"/>
      <circle id="ITEM_3_STROKE" cx="0" cy="0" r="45" fill="transparent" stroke="var(--accent-1)" stroke-width="3" stroke-dasharray="6 4" stroke-opacity="1.0"/>
      <circle id="ITEM_3_PAD" cx="0.00" cy="0.00" r="40.00" fill="var(--icon-pad-bg)" stroke="var(--primary-text)" stroke-width="2" opacity="0.9"/>
      <circle id="ITEM_3_PAD_INNER" cx="0.00" cy="0.00" r="31.20" fill="var(--accent-1)" fill-opacity="0.22"/>
      <g id="ITEM_3_ICON" transform="translate(-25, -25)" data-icon-size="50" stroke-dasharray="6 4">
        <g transform="translate(-8.844067796610172,-10.166101694915259) scale(2.820338983050848)" vector-effect="non-scaling-stroke" stroke-width="2.31" stroke-linecap="round" stroke-linejoin="round" stroke-opacity="1.0">
          <path d="M10 20a1 1 0 0 0 .553.895l2 1A1 1 0 0 0 14 21v-7a2 2 0 0 1 .517-1.341L21.74 4.67A1 1 0 0 0 21 3H3a1 1 0 0 0-.742 1.67l7.225 7.989A2 2 0 0 1 10 14z" vector-effect="non-scaling-stroke" fill="none" stroke="#f1f5f9"/>
        </g>
      </g>
    </g>
    <!-- Elbow Connector from Node to Text Column -->
    <path id="ITEM_3_CONN" d="M 595.7788896587491 664.4478606613001 L 1220 686.6666666666667 L 1240 686.6666666666667" fill="transparent" stroke="var(--accent-1)" stroke-width="3" stroke-dasharray="6 7" opacity="0.46" stroke-linecap="round" stroke-opacity="1.0"/>
    <circle id="ITEM_3_DOT" cx="1240" cy="686.6666666666667" r="5.5" fill="var(--accent-1)" fill-opacity="1.0"/>
    <!-- Rigid text block -->
    <rect id="ITEM_3_TEXT_BG" x="1232.0" y="620.7" width="656.0" height="172.0" rx="16" fill="var(--panel)" fill-opacity="0.94" stroke="var(--primary-text)" stroke-opacity="0.12" stroke-width="1.5"/>
    <rect x="1244.0" y="620.7" width="632.0" height="172.0" rx="14" fill="url(#svge52818db-orbit-card-sheen)" opacity="0.86"/>
    <text id="ITEM_3_HEAD" data-bg-id="ITEM_3_TEXT_BG" x="1250.0" y="636.6666666666667" font-weight="bold" font-size="28" fill="var(--accent-1)" text-anchor="start" fill-opacity="1.0" stroke="none" style="font-size: 30px; font-family: Inter, Segoe UI, Kalam, Roboto, Helvetica, Arial, sans-serif; font-weight: 700; letter-spacing:-0.4px;" data-final-font-size="30">
      <tspan x="1250.0" dy="30.75px">Data Filtering</tspan>
    </text>
    <rect id="ITEM_3_HEAD_FRAME" x="1250" y="636.6666666666667" width="620" height="45" fill="none"/>
    <text id="ITEM_3_BODY" data-bg-id="ITEM_3_TEXT_BG" x="1250.0" y="686.6666666666667" font-size="20" fill="var(--primary-text)" text-anchor="start" style="font-size: 26px; font-family: Inter, Segoe UI, Kalam, Roboto, Helvetica, Arial, sans-serif; font-weight: 400;" data-final-font-size="26">
      <tspan x="1250.0" dy="26.84px">Separate routine observations</tspan>
      <tspan x="1250.0" dy="29.90px">from genuinely unusual cases</tspan>
    </text>
    <rect id="ITEM_3_BODY_FRAME" x="1250" y="686.6666666666667" width="620" height="90" fill="none"/>
    <g transform="translate(629.4228634059948, 990.0)">
      <circle id="ITEM_4_BORDER" cx="0" cy="0" r="37" fill="var(--background)" stroke="var(--accent-4)" stroke-width="3"/>
      <circle id="ITEM_4_STROKE" cx="0" cy="0" r="45" fill="transparent" stroke="var(--accent-2)" stroke-width="3" stroke-dasharray="6 4" stroke-opacity="1.0"/>
      <circle id="ITEM_4_PAD" cx="0.00" cy="0.00" r="40.00" fill="var(--icon-pad-bg)" stroke="var(--primary-text)" stroke-width="2" opacity="0.9"/>
      <circle id="ITEM_4_PAD_INNER" cx="0.00" cy="0.00" r="31.20" fill="var(--accent-2)" fill-opacity="0.22"/>
      <g id="ITEM_4_ICON" transform="translate(-25, -25)" data-icon-size="50" stroke-dasharray="6 4">
        <g transform="translate(-11.589090909090917,-10.738181818181825) scale(2.2690909090909095)">
          <path d="M12.0955 2.00006C11.3976 1.98479 10.7193 2.23248 10.1955 2.69402C9.35852 3.44402 9.47151 4.16102 8.72451 5.21502C8.51573 5.55185 8.24017 5.84237 7.91475 6.06854C7.58934 6.29471 7.22102 6.4518 6.83254 6.53008L6.80355 6.53704C6.2786 6.68227 5.81167 6.98694 5.46737 7.40899C5.12307 7.83104 4.91839 8.34958 4.88155 8.893C4.23255 13.982 5.98151 21.8931 10.2035 26.2241C11.3554 27.3166 12.611 28.2941 13.9525 29.143C15.3322 29.6195 16.8318 29.6195 18.2115 29.143C19.5677 28.3047 20.8315 27.3252 21.9816 26.221C26.0686 22.029 27.9655 14.0831 27.3035 8.89007C27.272 8.33987 27.0659 7.81407 26.715 7.38909C26.3641 6.96412 25.8869 6.6621 25.3526 6.52703C24.9641 6.44875 24.5957 6.29166 24.2703 6.06549C23.9449 5.83931 23.6694 5.54892 23.4606 5.21209C22.7846 4.25809 22.7935 3.4121 21.9895 2.6911C21.4657 2.22955 20.7875 1.98174 20.0895 1.997L12.0955 2.00006Z" fill="#E6E6E6"/>
          <path d="M20.0089 3.5H16L12.7858 15.9188L16 28.5C18 28.5 18 28 20 26.5C20 26.5 26.5 22 26 9.5C26 9.5 26.0024 8.25 25 8C22.5 7.5 21.5 4.5 21.5 4.5C21.368 4.16593 21 3.5 20.0089 3.5Z" fill="#AEDDFF"/>
          <path d="M12.0186 3.5H16.0275V28.5C14.0275 28.5 14.0275 28 12.0275 26.5C12.0275 26.5 5.52747 22 6.02747 9.5C6.02747 9.5 6.02505 8.25 7.02747 8C9.52747 7.5 10.5275 4.5 10.5275 4.5C10.6594 4.16593 11.0275 3.5 12.0186 3.5Z" fill="#00A6ED"/>
        </g>
      </g>
    </g>
    <!-- Elbow Connector from Node to Text Column -->
    <path id="ITEM_4_CONN" d="M 669.4228634059948 990.0 L 1220 920.0 L 1240 920.0" fill="transparent" stroke="var(--accent-2)" stroke-width="3" stroke-dasharray="6 7" opacity="0.46" stroke-linecap="round" stroke-opacity="1.0"/>
    <circle id="ITEM_4_DOT" cx="1240" cy="920.0" r="5.5" fill="var(--accent-2)" fill-opacity="1.0"/>
    <!-- Rigid text block -->
    <rect id="ITEM_4_TEXT_BG" x="1232.0" y="854.0" width="656.0" height="172.0" rx="16" fill="var(--panel)" fill-opacity="0.94" stroke="var(--primary-text)" stroke-opacity="0.12" stroke-width="1.5"/>
    <rect x="1244.0" y="854.0" width="632.0" height="172.0" rx="14" fill="url(#svge52818db-orbit-card-sheen)" opacity="0.86"/>
    <text id="ITEM_4_HEAD" data-bg-id="ITEM_4_TEXT_BG" x="1250.0" y="870.0" font-weight="bold" font-size="28" fill="var(--accent-2)" text-anchor="start" fill-opacity="1.0" stroke="none" style="font-size: 30px; font-family: Inter, Segoe UI, Kalam, Roboto, Helvetica, Arial, sans-serif; font-weight: 700; letter-spacing:-0.4px;" data-final-font-size="30">
      <tspan x="1250.0" dy="30.75px">Information Value</tspan>
    </text>
    <rect id="ITEM_4_HEAD_FRAME" x="1250" y="870.0" width="620" height="45" fill="none"/>
    <text id="ITEM_4_BODY" data-bg-id="ITEM_4_TEXT_BG" x="1250.0" y="920.0" font-size="20" fill="var(--primary-text)" text-anchor="start" style="font-size: 26px; font-family: Inter, Segoe UI, Kalam, Roboto, Helvetica, Arial, sans-serif; font-weight: 400;" data-final-font-size="26">
      <tspan x="1250.0" dy="26.84px">Increase the quality of data</tspan>
      <tspan x="1250.0" dy="29.90px">for national security use</tspan>
    </text>
    <rect id="ITEM_4_BODY_FRAME" x="1250" y="920.0" width="620" height="90" fill="none"/>
  </g>
</svg>
