<?xml version='1.0' encoding='utf-8'?>
<svg xmlns="http://www.w3.org/2000/svg" width="1920" height="1080" viewBox="0 0 1920 1080" data-theme="light">
  <style>
        @font-face {
            font-family: 'Inter';
            src: url('assets/fonts/Inter-Regular.ttf') format('truetype');
            font-weight: 400;
            font-style: normal;
            font-display: swap;
        }
        @font-face {
            font-family: 'Inter';
            src: url('assets/fonts/Inter-Bold.ttf') format('truetype');
            font-weight: 600;
            font-style: normal;
            font-display: swap;
        }
        @font-face {
            font-family: 'Inter';
            src: url('assets/fonts/Inter-Bold.ttf') format('truetype');
            font-weight: 800;
            font-style: normal;
            font-display: swap;
        }
        
:root {
    --background: #f8fafc;
    --panel: #ffffff;
    --primary-text: #0f172a;
    --muted-text: #64748b;
    --inverse-text: #ffffff;
    --border: #e2e8f0;
    --shadow-color: #000000;
    --icon-pad-bg: #1e293b;
    --art-glow: #0891b2;
    --art-glow-opacity: 0.10;
    --art-sheen: #ffffff;
    --art-sheen-opacity: 0.34;
    --art-shadow: #0f172a;
    --art-shadow-opacity: 0.14;
    --art-muted-line: #94a3b8;
    --art-panel-tint: #f1f5f9;
    --font-family: 'Inter', 'Segoe UI', 'Kalam', Roboto, Helvetica, Arial, sans-serif;
    --radius-xl: 16px;
    --font-family-headline: 'Inter', 'Segoe UI', 'Kalam', Roboto, Helvetica, Arial, sans-serif;
    --font-family-body: 'Inter', 'Segoe UI', 'Kalam', Roboto, Helvetica, Arial, sans-serif;
    --font-heading: 'Inter', 'Segoe UI', 'Kalam', Roboto, Helvetica, Arial, sans-serif;
    --font-body: 'Inter', 'Segoe UI', 'Kalam', Roboto, Helvetica, Arial, sans-serif;
    --font-size-h1: 56px;
    --font-size-h2: 40px;
    --font-size-h3: 28px;
    --font-size-body: 24px;
    --font-size-caption: 18px;
    --secondary-text: var(--muted-text);
    --panel-border: var(--border);
    --font-weight-normal: 400;
    --font-weight-medium: 500;
    --font-weight-semibold: 600;
    --font-weight-bold: 700;
    --spacing-gutter-pct: 0.07;
    --spacing-top-pct: 0.15;
    --spacing-bottom-pct: 0.07;
    --spacing-title-y-pct: 0.055;
    --accent-1: #d97706;
    --accent-2: #ea580c;
    --accent-3: #dc2626;
    --accent-4: #65a30d;
    --accent-5: #16a34a;
    --accent-6: #92400e;
}
:root[data-theme="dark"] {
    --background: #0f172a;
    --panel: #1e293b;
    --primary-text: #f1f5f9;
    --muted-text: #94a3b8;
    --inverse-text: #0f172a;
    --border: #334155;
    --shadow-color: #000000;
    --icon-pad-bg: #1e293b;
    --art-glow: #7dd3fc;
    --art-glow-opacity: 0.18;
    --art-sheen: #ffffff;
    --art-sheen-opacity: 0.18;
    --art-shadow: #000000;
    --art-shadow-opacity: 0.28;
    --art-muted-line: #64748b;
    --art-panel-tint: #1e293b;
    --accent-1: #fbbf24;
    --accent-2: #fb923c;
    --accent-3: #f87171;
    --accent-4: #a3e635;
    --accent-5: #4ade80;
    --accent-6: #d4a574;
}
:root[data-theme="light"] {
    --background: #f8fafc;
    --panel: #ffffff;
    --primary-text: #0f172a;
    --muted-text: #64748b;
    --inverse-text: #ffffff;
    --border: #e2e8f0;
    --shadow-color: #000000;
    --icon-pad-bg: #1e293b;
    --art-glow: #0891b2;
    --art-glow-opacity: 0.10;
    --art-sheen: #ffffff;
    --art-sheen-opacity: 0.34;
    --art-shadow: #0f172a;
    --art-shadow-opacity: 0.14;
    --art-muted-line: #94a3b8;
    --art-panel-tint: #f1f5f9;
    --accent-1: #d97706;
    --accent-2: #ea580c;
    --accent-3: #dc2626;
    --accent-4: #65a30d;
    --accent-5: #16a34a;
    --accent-6: #92400e;
}</style>
  <rect x="0" y="0" width="1.92E+3" height="1.08E+3" fill="#252a34" stroke="none" id="programmatic_background"/>
  <line id="HEADER_DECOR" x1="960.0" x2="1080.0" y1="135.0" y2="135.0" stroke="var(--accent-1)" stroke-width="6" stroke-linecap="round"/>
  <defs>
    <pattern id="svg482f2629-napkin-hatch" patternUnits="userSpaceOnUse" width="12" height="12">
      <path d="M -3 12 L 12 -3 M 0 15 L 15 0" fill="none" stroke="var(--primary-text)" stroke-width="1" stroke-opacity="0.05"/>
    </pattern>
    <filter id="svg482f2629-shadow" x="-30%" y="-30%" width="160%" height="160%">
      <feDropShadow dx="0" dy="2" stdDeviation="3" flood-color="#000000" flood-opacity="0.08"/>
      <feDropShadow dx="0" dy="6" stdDeviation="10" flood-color="#000000" flood-opacity="0.12"/>
    </filter>
    <radialGradient id="svg482f2629-universal-edge-vignette" cx="50%" cy="50%" r="72%">
      <stop offset="0%" stop-color="var(--background)" stop-opacity="0"/>
      <stop offset="72%" stop-color="var(--background)" stop-opacity="0.12"/>
      <stop offset="100%" stop-color="var(--primary-text)" stop-opacity="0.08"/>
    </radialGradient>
    <linearGradient id="svg482f2629-universal-surface-sheen" x1="0%" y1="0%" x2="100%" y2="100%">
      <stop offset="0%" stop-color="var(--art-sheen)" stop-opacity="var(--art-sheen-opacity)"/>
      <stop offset="46%" stop-color="var(--art-sheen)" stop-opacity="0.035"/>
      <stop offset="100%" stop-color="var(--art-panel-tint)" stop-opacity="0.14"/>
    </linearGradient>
    <radialGradient id="svg482f2629-universal-icon-aura" cx="50%" cy="42%" r="64%">
      <stop offset="0%" stop-color="var(--art-glow)" stop-opacity="var(--art-glow-opacity)"/>
      <stop offset="100%" stop-color="var(--background)" stop-opacity="0"/>
    </radialGradient>
    <filter id="svg482f2629-text-glow" x="-20%" y="-20%" width="140%" height="140%">
      <feDropShadow dx="0" dy="0" stdDeviation="2" flood-color="#000000" flood-opacity="0.4"/>
    </filter>
    <marker id="svg482f2629-arrowhead" markerWidth="10" markerHeight="7" refX="9" refY="3.5" orient="auto" markerUnits="strokeWidth">
      <polygon points="0 0, 10 3.5, 0 7" fill="var(--muted-text)" opacity="0.6"/>
    </marker>
  </defs>
  <rect width="100%" height="100%" fill="var(--background)" id="CANVAS_BG"/>
  <rect width="100%" height="100%" fill="url(#svg482f2629-napkin-hatch)"/>
  <rect id="UNIVERSAL_EDGE_VIGNETTE" width="100%" height="100%" fill="url(#svg482f2629-universal-edge-vignette)" opacity="0.62"/>
  <text id="TITLE" x="960.0" y="59" text-anchor="middle" font-weight="800" font-size="56" fill="#0f172a" style="font-size: 60px; font-family: Inter, Segoe UI, Kalam, Roboto, Helvetica, Arial, sans-serif; font-weight: 700; letter-spacing:-1.2px;" data-final-font-size="60">
    <tspan x="960.0" dy="68.00px">UAP Investigation Verification Path</tspan>
  </text>
  <rect id="TITLE_FRAME" x="134" y="28" width="1652" height="88" fill="none"/>
  <g transform="translate(960, 590)">
    <circle r="178" fill="var(--panel)" fill-opacity="0.72" stroke="var(--muted-text)" stroke-width="3" stroke-dasharray="12 6" opacity="0.75"/>
    <circle id="CENTER_PAD" r="116" fill="var(--icon-pad-bg)" stroke="none" opacity="0.96"/>
    <g id="CENTER_ICON" transform="translate(-70, -70)" data-icon-size="140" stroke-dasharray="8 5">
      <g transform="translate(-20.480000000000004,-20.480000000000004) scale(12.925714285714287)" vector-effect="non-scaling-stroke" stroke-width="3.39" stroke-linecap="round" stroke-linejoin="round" stroke-opacity="1.0">
        <path id="Vector" fill="none" d="M6 11.5a5.5 5.5 0 1 0 0 -11 5.5 5.5 0 0 0 0 11Z" vector-effect="non-scaling-stroke" stroke="#f1f5f9"/>
        <path id="Vector_2" stroke="#f1f5f9" d="M6 11.5a5.5 5.5 0 1 0 0 -11 5.5 5.5 0 0 0 0 11Z" vector-effect="non-scaling-stroke" fill="none"/>
        <path id="Vector_3" stroke="#f1f5f9" d="M13.5 13.5 10 10" vector-effect="non-scaling-stroke" fill="none"/>
      </g>
    </g>
    <circle r="90" fill="none" stroke="var(--primary-text)" stroke-width="3" stroke-dasharray="8 5" opacity="0.8"/>
    <text id="CENTER_LABEL" x="0" y="12" text-anchor="middle" font-weight="800" font-size="34" fill="var(--primary-text)" display="none">SUBJECT</text>
  </g>
  <g transform="translate(400, 420)">
    <line x1="62" y1="32" x2="360" y2="150" stroke="var(--accent-1)" stroke-width="4.5" stroke-dasharray="6 6" opacity="0.75"/>
    <circle cx="360" cy="150" r="7" fill="var(--accent-1)"/>
    <circle id="ITEM_1_PAD" r="56" fill="var(--icon-pad-bg)" stroke="var(--primary-text)" opacity="0.95" fill-opacity="0.9" stroke-width="2"/>
    <circle id="ITEM_1_PAD_INNER" cx="0" cy="0" r="43.68" fill="var(--accent-3)" fill-opacity="0.22"/>
    <circle id="ITEM_1_NODE" r="46" fill="none" stroke="var(--accent-1)" stroke-width="3" stroke-dasharray="6 4" filter="url(#svg482f2629-shadow)"/>
    <rect id="ITEM_1_TEXT_BG" x="-382" y="-78" width="302" height="172" rx="24" fill="var(--panel)" fill-opacity="0.96" filter="url(#svg482f2629-shadow)" stroke="none"/>
    <text id="ITEM_1_HEAD" x="-110.0" y="-48.0" text-anchor="end" font-weight="bold" font-size="30" fill="var(--accent-3)" data-bg-id="ITEM_1_TEXT_BG" fill-opacity="1.0" style="font-size: 23px; font-family: Inter, Segoe UI, Kalam, Roboto, Helvetica, Arial, sans-serif; font-weight: 700; letter-spacing:-0.4px;" data-final-font-size="23">
      <tspan x="-110.0" dy="27.18px">Initial Allegation</tspan>
    </text>
    <rect id="ITEM_1_HEAD_FRAME" x="-318" y="-48" width="208" height="44" fill="none"/>
    <text id="ITEM_1_BODY" x="-110.0" y="-2.0" text-anchor="end" font-size="20" fill="var(--primary-text)" data-bg-id="ITEM_1_TEXT_BG" style="font-size: 22px; font-family: Inter, Segoe UI, Kalam, Roboto, Helvetica, Arial, sans-serif; font-weight: 400;" data-final-font-size="22">
      <tspan x="-110.0" dy="23.22px">Whistleblower presents</tspan>
      <tspan x="-110.0" dy="25.30px">claims of secret</tspan>
      <tspan x="-110.0" dy="25.30px">government programs</tspan>
    </text>
    <rect id="ITEM_1_BODY_FRAME" x="-352" y="-2" width="242" height="104" fill="none"/>
    <g id="ITEM_1_ICON" transform="translate(-33, -33)" data-icon-size="66" stroke-dasharray="6 4">
      <g transform="translate(-18.76888888888888,-18.76888888888889) scale(4.314074074074074)" vector-effect="non-scaling-stroke" stroke-width="2.50" stroke-linecap="round" stroke-linejoin="round" stroke-opacity="1.0">
        <path d="M5 8h14l-.621 2.485a2 2 0 0 1 -1.94 1.515h-8.878a2 2 0 0 1 -1.94 -1.515l-.621 -2.485z" vector-effect="non-scaling-stroke" fill="none" stroke="#f1f5f9"/>
        <path d="M7 8v-2a3 3 0 0 1 3 -3" vector-effect="non-scaling-stroke" fill="none" stroke="#f1f5f9"/>
        <path d="M8 12l1 9" vector-effect="non-scaling-stroke" fill="none" stroke="#f1f5f9"/>
        <path d="M16 12l-1 9" vector-effect="non-scaling-stroke" fill="none" stroke="#f1f5f9"/>
        <path d="M7 21h10" vector-effect="non-scaling-stroke" fill="none" stroke="#f1f5f9"/>
      </g>
    </g>
  </g>
  <g transform="translate(960, 348)">
    <line x1="0" y1="76" x2="0" y2="208" stroke="var(--accent-2)" stroke-width="4.5" stroke-dasharray="6 6" opacity="0.75"/>
    <circle cx="0" cy="208" r="7" fill="var(--accent-2)"/>
    <circle id="ITEM_2_PAD" r="56" fill="var(--icon-pad-bg)" stroke="var(--primary-text)" opacity="0.95" fill-opacity="0.9" stroke-width="2"/>
    <circle id="ITEM_2_PAD_INNER" cx="0" cy="0" r="43.68" fill="var(--accent-4)" fill-opacity="0.22"/>
    <circle id="ITEM_2_NODE" r="46" fill="none" stroke="var(--accent-2)" stroke-width="3" stroke-dasharray="6 4" filter="url(#svg482f2629-shadow)"/>
    <rect id="ITEM_2_TEXT_BG" x="-210" y="-178" width="420" height="124" rx="24" fill="var(--panel)" fill-opacity="0.96" filter="url(#svg482f2629-shadow)" stroke="none"/>
    <text id="ITEM_2_HEAD" x="0.0" y="-154.0" text-anchor="middle" font-weight="bold" font-size="30" fill="var(--primary-text)" data-bg-id="ITEM_2_TEXT_BG" fill-opacity="1.0" style="font-size: 29px; font-family: Inter, Segoe UI, Kalam, Roboto, Helvetica, Arial, sans-serif; font-weight: 700; letter-spacing:-0.4px;" data-final-font-size="29">
      <tspan x="0.0" dy="27.98px">Witness Corroboration</tspan>
    </text>
    <rect id="ITEM_2_HEAD_FRAME" x="-150" y="-154" width="300" height="40" fill="none"/>
    <text id="ITEM_2_BODY" x="0.0" y="-112.0" text-anchor="middle" font-size="20" fill="var(--primary-text)" data-bg-id="ITEM_2_TEXT_BG" style="font-size: 26px; font-family: Inter, Segoe UI, Kalam, Roboto, Helvetica, Arial, sans-serif; font-weight: 400;" data-final-font-size="26">
      <tspan x="0.0" dy="22.44px">Identifying and vetting</tspan>
      <tspan x="0.0" dy="29.90px">the forty reported sources</tspan>
    </text>
    <rect id="ITEM_2_BODY_FRAME" x="-184" y="-112" width="368" height="68" fill="none"/>
    <g id="ITEM_2_ICON" transform="translate(-33, -33)" data-icon-size="66" stroke-dasharray="6 4">
      <g transform="translate(-14.381694915254236,-14.381694915254235) scale(3.9484745762711864)" vector-effect="non-scaling-stroke" stroke-width="2.50" stroke-linecap="round" stroke-linejoin="round" stroke-opacity="1.0">
        <path d="M16 10h2" vector-effect="non-scaling-stroke" fill="none" stroke="#f1f5f9"/>
        <path d="M16 14h2" vector-effect="non-scaling-stroke" fill="none" stroke="#f1f5f9"/>
        <path d="M6.17 15a3 3 0 0 1 5.66 0" vector-effect="non-scaling-stroke" fill="none" stroke="#f1f5f9"/>
        <circle cx="9" cy="11" r="2" vector-effect="non-scaling-stroke" fill="none" stroke="#f1f5f9"/>
        <rect x="2" y="5" width="20" height="14" rx="2" vector-effect="non-scaling-stroke" fill="none" stroke="#f1f5f9"/>
      </g>
    </g>
  </g>
  <g transform="translate(1520, 420)">
    <line x1="-62" y1="32" x2="-360" y2="150" stroke="var(--accent-3)" stroke-width="4.5" stroke-dasharray="6 6" opacity="0.75"/>
    <circle cx="-360" cy="150" r="7" fill="var(--accent-3)"/>
    <circle id="ITEM_3_PAD" r="56" fill="var(--icon-pad-bg)" stroke="var(--primary-text)" opacity="0.95" fill-opacity="0.9" stroke-width="2"/>
    <circle id="ITEM_3_PAD_INNER" cx="0" cy="0" r="43.68" fill="var(--accent-5)" fill-opacity="0.22"/>
    <circle id="ITEM_3_NODE" r="46" fill="none" stroke="var(--accent-3)" stroke-width="3" stroke-dasharray="6 4" filter="url(#svg482f2629-shadow)"/>
    <rect id="ITEM_3_TEXT_BG" x="80" y="-78" width="302" height="172" rx="24" fill="var(--panel)" fill-opacity="0.96" filter="url(#svg482f2629-shadow)" stroke="none"/>
    <text id="ITEM_3_HEAD" x="110.0" y="-48.0" text-anchor="start" font-weight="bold" font-size="30" fill="var(--primary-text)" data-bg-id="ITEM_3_TEXT_BG" fill-opacity="1.0" style="font-size: 25px; font-family: Inter, Segoe UI, Kalam, Roboto, Helvetica, Arial, sans-serif; font-weight: 700; letter-spacing:-0.4px;" data-final-font-size="25">
      <tspan x="110.0" dy="27.62px">Documentary Audit</tspan>
    </text>
    <rect id="ITEM_3_HEAD_FRAME" x="110" y="-48" width="208" height="44" fill="none"/>
    <text id="ITEM_3_BODY" x="110.0" y="-2.0" text-anchor="start" font-size="20" fill="var(--primary-text)" data-bg-id="ITEM_3_TEXT_BG" style="font-size: 26px; font-family: Inter, Segoe UI, Kalam, Roboto, Helvetica, Arial, sans-serif; font-weight: 400;" data-final-font-size="26">
      <tspan x="110.0" dy="23.66px">Cross-referencing</tspan>
      <tspan x="110.0" dy="29.90px">witness claims with</tspan>
      <tspan x="110.0" dy="29.90px">official records</tspan>
    </text>
    <rect id="ITEM_3_BODY_FRAME" x="110" y="-2" width="242" height="104" fill="none"/>
    <g id="ITEM_3_ICON" transform="translate(-33, -33)" data-icon-size="66" stroke-dasharray="6 4">
      <g transform="translate(-10.68,-10.680000000000003) scale(6.24)" vector-effect="non-scaling-stroke" stroke-width="2.50" stroke-linecap="round" stroke-linejoin="round" stroke-opacity="1.0">
        <path id="Vector" fill="none" d="M1.5 5h11v7c0 0.2652 -0.1054 0.5196 -0.2929 0.7071S11.7652 13 11.5 13h-9c-0.26522 0 -0.51957 -0.1054 -0.70711 -0.2929C1.60536 12.5196 1.5 12.2652 1.5 12V5Z" vector-effect="non-scaling-stroke" stroke="#f1f5f9"/>
        <path id="Vector_2" fill="none" d="M13.5 4V2c0 -0.55228 -0.4477 -1 -1 -1l-11 0c-0.552285 0 -1 0.44772 -1 1v2c0 0.55228 0.447715 1 1 1l11 0c0.5523 0 1 -0.44772 1 -1Z" vector-effect="non-scaling-stroke" stroke="#f1f5f9"/>
        <path id="Vector_3" stroke="#f1f5f9" d="M1.5 5h11v7c0 0.2652 -0.1054 0.5196 -0.2929 0.7071S11.7652 13 11.5 13h-9c-0.26522 0 -0.51957 -0.1054 -0.70711 -0.2929C1.60536 12.5196 1.5 12.2652 1.5 12V5v0Z" vector-effect="non-scaling-stroke" fill="none"/>
        <path id="Vector_4" stroke="#f1f5f9" d="M13.5 4V2c0 -0.55228 -0.4477 -1 -1 -1l-11 0c-0.552285 0 -1 0.44772 -1 1v2c0 0.55228 0.447715 1 1 1l11 0c0.5523 0 1 -0.44772 1 -1Z" vector-effect="non-scaling-stroke" fill="none"/>
        <path id="Vector_5" stroke="#f1f5f9" d="M5.5 8h3" vector-effect="non-scaling-stroke" fill="none"/>
      </g>
    </g>
  </g>
  <g transform="translate(430, 770)">
    <line x1="62" y1="-32" x2="360" y2="-150" stroke="var(--accent-4)" stroke-width="4.5" stroke-dasharray="6 6" opacity="0.75"/>
    <circle cx="360" cy="-150" r="7" fill="var(--accent-4)"/>
    <circle id="ITEM_4_PAD" r="56" fill="var(--icon-pad-bg)" stroke="var(--primary-text)" opacity="0.95" fill-opacity="0.9" stroke-width="2"/>
    <circle id="ITEM_4_PAD_INNER" cx="0" cy="0" r="43.68" fill="var(--accent-6)" fill-opacity="0.22"/>
    <circle id="ITEM_4_NODE" r="46" fill="none" stroke="var(--accent-4)" stroke-width="3" stroke-dasharray="6 4" filter="url(#svg482f2629-shadow)"/>
    <rect id="ITEM_4_TEXT_BG" x="-382" y="-78" width="302" height="172" rx="24" fill="var(--panel)" fill-opacity="0.96" filter="url(#svg482f2629-shadow)" stroke="none"/>
    <text id="ITEM_4_HEAD" x="-110.0" y="-48.0" text-anchor="end" font-weight="bold" font-size="30" fill="var(--accent-6)" data-bg-id="ITEM_4_TEXT_BG" fill-opacity="1.0" style="font-size: 20px; font-family: Inter, Segoe UI, Kalam, Roboto, Helvetica, Arial, sans-serif; font-weight: 700; letter-spacing:-0.4px;" data-final-font-size="20">
      <tspan x="-110.0" dy="25.50px">Physical Verification</tspan>
    </text>
    <rect id="ITEM_4_HEAD_FRAME" x="-318" y="-48" width="208" height="44" fill="none"/>
    <text id="ITEM_4_BODY" x="-110.0" y="-2.0" text-anchor="end" font-size="20" fill="var(--primary-text)" data-bg-id="ITEM_4_TEXT_BG" style="font-size: 22px; font-family: Inter, Segoe UI, Kalam, Roboto, Helvetica, Arial, sans-serif; font-weight: 400;" data-final-font-size="22">
      <tspan x="-110.0" dy="23.22px">Seeking tangible</tspan>
      <tspan x="-110.0" dy="25.30px">evidence or laboratory</tspan>
      <tspan x="-110.0" dy="25.30px">analysis results</tspan>
    </text>
    <rect id="ITEM_4_BODY_FRAME" x="-352" y="-2" width="242" height="104" fill="none"/>
    <g id="ITEM_4_ICON" transform="translate(-33, -33)" data-icon-size="66" stroke-dasharray="6 4">
      <g transform="translate(-20.29761467889908,-17.091743119266056) scale(3.2058715596330276)">
        <path d="M12.3136 12.7574L20.4999 11L25.7487 13.4646L11.6065 27.6067C9.6539 29.5593 6.48807 29.5593 4.53545 27.6067C2.58283 25.6541 2.58283 22.4882 4.53545 20.5356L5.59212 19.479L6.64879 19.5664V18.4223L9.84605 15.225L10.8949 15.1953V14.1762L12.3136 12.7574Z" fill="#C3EF3C"/>
        <path d="M21.8596 2.50428C21.2738 1.91849 20.3241 1.91849 19.7383 2.50428C19.1525 3.09007 19.1525 4.03982 19.7383 4.6256L20.0918 4.97916L15.1174 9.95364L15.5 11L14.1038 10.9672L12.3136 12.7574L25.7486 13.4645L27.1629 12.0502L27.5165 12.4038C28.1023 12.9896 29.052 12.9896 29.6378 12.4038C30.2236 11.818 30.2236 10.8682 29.6378 10.2825L21.8596 2.50428Z" fill="#AEDDFF"/>
        <path d="M15.1421 9.92896L17.4402 12.2271C17.7331 12.5199 17.7331 12.9948 17.4402 13.2877C17.1473 13.5806 16.6724 13.5806 16.3795 13.2877L14.0814 10.9896L15.1421 9.92896Z" fill="#008463"/>
        <path d="M10.8994 14.1716L13.1975 16.4697C13.4904 16.7626 13.4904 17.2375 13.1975 17.5304C12.9046 17.8233 12.4297 17.8233 12.1368 17.5304L9.83875 15.2323L10.8994 14.1716Z" fill="#008463"/>
        <path d="M8.95495 20.7123L6.65685 18.4142L5.59619 19.4748L7.89429 21.7729C8.18718 22.0658 8.66206 22.0658 8.95495 21.7729C9.24784 21.48 9.24784 21.0052 8.95495 20.7123Z" fill="#008463"/>
      </g>
    </g>
  </g>
  <g transform="translate(1490, 770)">
    <line x1="-62" y1="-32" x2="-360" y2="-150" stroke="var(--accent-5)" stroke-width="4.5" stroke-dasharray="6 6" opacity="0.75"/>
    <circle cx="-360" cy="-150" r="7" fill="var(--accent-5)"/>
    <circle id="ITEM_5_PAD" r="56" fill="var(--icon-pad-bg)" stroke="var(--primary-text)" opacity="0.95" fill-opacity="0.9" stroke-width="2"/>
    <circle id="ITEM_5_PAD_INNER" cx="0" cy="0" r="43.68" fill="var(--accent-1)" fill-opacity="0.22"/>
    <circle id="ITEM_5_NODE" r="46" fill="none" stroke="var(--accent-5)" stroke-width="3" stroke-dasharray="6 4" filter="url(#svg482f2629-shadow)"/>
    <rect id="ITEM_5_TEXT_BG" x="80" y="-78" width="302" height="172" rx="24" fill="var(--panel)" fill-opacity="0.96" filter="url(#svg482f2629-shadow)" stroke="none"/>
    <text id="ITEM_5_HEAD" x="110.0" y="-48.0" text-anchor="start" font-weight="bold" font-size="30" fill="var(--primary-text)" data-bg-id="ITEM_5_TEXT_BG" fill-opacity="1.0" style="font-size: 21px; font-family: Inter, Segoe UI, Kalam, Roboto, Helvetica, Arial, sans-serif; font-weight: 700; letter-spacing:-0.4px;" data-final-font-size="21">
      <tspan x="110.0" dy="26.73px">Institutional Review</tspan>
    </text>
    <rect id="ITEM_5_HEAD_FRAME" x="110" y="-48" width="208" height="44" fill="none"/>
    <text id="ITEM_5_BODY" x="110.0" y="-2.0" text-anchor="start" font-size="20" fill="var(--primary-text)" data-bg-id="ITEM_5_TEXT_BG" style="font-size: 22px; font-family: Inter, Segoe UI, Kalam, Roboto, Helvetica, Arial, sans-serif; font-weight: 400;" data-final-font-size="22">
      <tspan x="110.0" dy="23.22px">AARO and congressional</tspan>
      <tspan x="110.0" dy="25.30px">oversight evaluate</tspan>
      <tspan x="110.0" dy="25.30px">final findings</tspan>
    </text>
    <rect id="ITEM_5_BODY_FRAME" x="110" y="-2" width="242" height="104" fill="none"/>
    <g id="ITEM_5_ICON" transform="translate(-33, -33)" data-icon-size="66" stroke-dasharray="6 4">
      <g transform="translate(-14.381694915254236,-14.381694915254236) scale(3.9484745762711864)" vector-effect="non-scaling-stroke" stroke-width="2.50" stroke-linecap="round" stroke-linejoin="round" stroke-opacity="1.0">
        <path d="m14 13-8.381 8.38a1 1 0 0 1-3.001-3l8.384-8.381" vector-effect="non-scaling-stroke" fill="none" stroke="#f1f5f9"/>
        <path d="m16 16 6-6" vector-effect="non-scaling-stroke" fill="none" stroke="#f1f5f9"/>
        <path d="m21.5 10.5-8-8" vector-effect="non-scaling-stroke" fill="none" stroke="#f1f5f9"/>
        <path d="m8 8 6-6" vector-effect="non-scaling-stroke" fill="none" stroke="#f1f5f9"/>
        <path d="m8.5 7.5 8 8" vector-effect="non-scaling-stroke" fill="none" stroke="#f1f5f9"/>
      </g>
    </g>
  </g>
</svg>
