<?xml version='1.0' encoding='utf-8'?>
<svg xmlns="http://www.w3.org/2000/svg" width="1920" height="1080" viewBox="0 0 1920 1080" data-theme="dark">
  <style>
        @font-face {
            font-family: 'Inter';
            src: url('assets/fonts/Inter-Regular.ttf') format('truetype');
            font-weight: 400;
            font-style: normal;
            font-display: swap;
        }
        @font-face {
            font-family: 'Inter';
            src: url('assets/fonts/Inter-Bold.ttf') format('truetype');
            font-weight: 600;
            font-style: normal;
            font-display: swap;
        }
        @font-face {
            font-family: 'Inter';
            src: url('assets/fonts/Inter-Bold.ttf') format('truetype');
            font-weight: 800;
            font-style: normal;
            font-display: swap;
        }
        
:root {
    --background: #0f172a;
    --panel: #1e293b;
    --primary-text: #f1f5f9;
    --muted-text: #94a3b8;
    --inverse-text: #0f172a;
    --border: #334155;
    --shadow-color: #000000;
    --icon-pad-bg: #1e293b;
    --art-glow: #7dd3fc;
    --art-glow-opacity: 0.18;
    --art-sheen: #ffffff;
    --art-sheen-opacity: 0.18;
    --art-shadow: #000000;
    --art-shadow-opacity: 0.28;
    --art-muted-line: #64748b;
    --art-panel-tint: #1e293b;
    --font-family: 'Inter', 'Segoe UI', 'Kalam', Roboto, Helvetica, Arial, sans-serif;
    --radius-xl: 16px;
    --font-family-headline: 'Inter', 'Segoe UI', 'Kalam', Roboto, Helvetica, Arial, sans-serif;
    --font-family-body: 'Inter', 'Segoe UI', 'Kalam', Roboto, Helvetica, Arial, sans-serif;
    --font-heading: 'Inter', 'Segoe UI', 'Kalam', Roboto, Helvetica, Arial, sans-serif;
    --font-body: 'Inter', 'Segoe UI', 'Kalam', Roboto, Helvetica, Arial, sans-serif;
    --font-size-h1: 56px;
    --font-size-h2: 40px;
    --font-size-h3: 28px;
    --font-size-body: 24px;
    --font-size-caption: 18px;
    --secondary-text: var(--muted-text);
    --panel-border: var(--border);
    --font-weight-normal: 400;
    --font-weight-medium: 500;
    --font-weight-semibold: 600;
    --font-weight-bold: 700;
    --spacing-gutter-pct: 0.07;
    --spacing-top-pct: 0.15;
    --spacing-bottom-pct: 0.07;
    --spacing-title-y-pct: 0.055;
    --accent-1: #93c5fd;
    --accent-2: #86efac;
    --accent-3: #fcd34d;
    --accent-4: #f9a8d4;
    --accent-5: #c4b5fd;
    --accent-6: #a5f3fc;
}
:root[data-theme="dark"] {
    --background: #0f172a;
    --panel: #1e293b;
    --primary-text: #f1f5f9;
    --muted-text: #94a3b8;
    --inverse-text: #0f172a;
    --border: #334155;
    --shadow-color: #000000;
    --icon-pad-bg: #1e293b;
    --art-glow: #7dd3fc;
    --art-glow-opacity: 0.18;
    --art-sheen: #ffffff;
    --art-sheen-opacity: 0.18;
    --art-shadow: #000000;
    --art-shadow-opacity: 0.28;
    --art-muted-line: #64748b;
    --art-panel-tint: #1e293b;
    --accent-1: #93c5fd;
    --accent-2: #86efac;
    --accent-3: #fcd34d;
    --accent-4: #f9a8d4;
    --accent-5: #c4b5fd;
    --accent-6: #a5f3fc;
}
:root[data-theme="light"] {
    --background: #f8fafc;
    --panel: #ffffff;
    --primary-text: #0f172a;
    --muted-text: #64748b;
    --inverse-text: #ffffff;
    --border: #e2e8f0;
    --shadow-color: #000000;
    --icon-pad-bg: #1e293b;
    --art-glow: #0891b2;
    --art-glow-opacity: 0.10;
    --art-sheen: #ffffff;
    --art-sheen-opacity: 0.34;
    --art-shadow: #0f172a;
    --art-shadow-opacity: 0.14;
    --art-muted-line: #94a3b8;
    --art-panel-tint: #f1f5f9;
    --accent-1: #3b82f6;
    --accent-2: #22c55e;
    --accent-3: #f59e0b;
    --accent-4: #ec4899;
    --accent-5: #8b5cf6;
    --accent-6: #06b6d4;
}</style>
  <rect x="0" y="0" width="1.92E+3" height="1.08E+3" fill="#252a34" stroke="none" id="programmatic_background"/>
  <line id="HEADER_DECOR" x1="960.0" x2="1080.0" y1="95.0" y2="95.0" stroke="var(--accent-1)" stroke-width="6" stroke-linecap="round"/>
  <defs>
    <pattern id="svg15e8a719-napkin-hatch" patternUnits="userSpaceOnUse" width="12" height="12">
      <path d="M -3 12 L 12 -3 M 0 15 L 15 0" fill="none" stroke="var(--primary-text)" stroke-width="1" stroke-opacity="0.05"/>
    </pattern>
    <radialGradient id="svg15e8a719-core-glow" cx="50%" cy="50%" r="50%">
      <stop offset="0%" stop-color="var(--accent-1)" stop-opacity="0.9"/>
      <stop offset="70%" stop-color="var(--accent-1)" stop-opacity="0.4"/>
      <stop offset="100%" stop-color="var(--background)" stop-opacity="0"/>
    </radialGradient>
    <radialGradient id="svg15e8a719-universal-edge-vignette" cx="50%" cy="50%" r="72%">
      <stop offset="0%" stop-color="var(--background)" stop-opacity="0"/>
      <stop offset="72%" stop-color="var(--background)" stop-opacity="0.12"/>
      <stop offset="100%" stop-color="var(--primary-text)" stop-opacity="0.08"/>
    </radialGradient>
    <linearGradient id="svg15e8a719-universal-surface-sheen" x1="0%" y1="0%" x2="100%" y2="100%">
      <stop offset="0%" stop-color="var(--art-sheen)" stop-opacity="var(--art-sheen-opacity)"/>
      <stop offset="46%" stop-color="var(--art-sheen)" stop-opacity="0.035"/>
      <stop offset="100%" stop-color="var(--art-panel-tint)" stop-opacity="0.14"/>
    </linearGradient>
    <radialGradient id="svg15e8a719-universal-icon-aura" cx="50%" cy="42%" r="64%">
      <stop offset="0%" stop-color="var(--art-glow)" stop-opacity="var(--art-glow-opacity)"/>
      <stop offset="100%" stop-color="var(--background)" stop-opacity="0"/>
    </radialGradient>
    <radialGradient id="svg15e8a719-geode-cavity-glow" cx="48%" cy="50%" r="34%">
      <stop offset="0%" stop-color="var(--inverse-text)" stop-opacity="0.34"/>
      <stop offset="58%" stop-color="var(--accent-2)" stop-opacity="0.12"/>
      <stop offset="100%" stop-color="var(--background)" stop-opacity="0"/>
    </radialGradient>
    <filter id="svg15e8a719-text-glow" x="-20%" y="-20%" width="140%" height="140%">
      <feDropShadow dx="0" dy="0" stdDeviation="2" flood-color="#000000" flood-opacity="0.4"/>
    </filter>
    <filter id="svg15e8a719-shadow" x="-30%" y="-30%" width="160%" height="160%">
      <feDropShadow dx="0" dy="2" stdDeviation="3" flood-color="#000000" flood-opacity="0.08"/>
      <feDropShadow dx="0" dy="6" stdDeviation="10" flood-color="#000000" flood-opacity="0.12"/>
    </filter>
    <marker id="svg15e8a719-arrowhead" markerWidth="10" markerHeight="7" refX="9" refY="3.5" orient="auto" markerUnits="strokeWidth">
      <polygon points="0 0, 10 3.5, 0 7" fill="var(--muted-text)" opacity="0.6"/>
    </marker>
  </defs>
  <rect width="100%" height="100%" fill="var(--background)" id="CANVAS_BG"/>
  <rect width="100%" height="100%" fill="url(#svg15e8a719-napkin-hatch)"/>
  <rect id="UNIVERSAL_EDGE_VIGNETTE" width="100%" height="100%" fill="url(#svg15e8a719-universal-edge-vignette)" opacity="0.62"/>
  <rect id="TITLE_FRAME" x="134" y="30" width="1652" height="70" fill="none"/>
  <text id="TITLE" x="960.0" y="59" font-size="48" font-weight="700" fill="#f1f5f9" text-anchor="middle" style="font-size: 60px; font-family: Inter, Segoe UI, Kalam, Roboto, Helvetica, Arial, sans-serif; font-weight: 700; letter-spacing:-1.2px;" data-final-font-size="60">
    <tspan x="960.0" dy="68.00px">Barriers to Verifying Military Sightings</tspan>
  </text>
  <g id="DIAGRAM_MAIN">
    <ellipse id="GEODE_CAST_SHADOW" cx="970" cy="830" rx="330" ry="54" fill="var(--primary-text)" opacity="0.06"/>
    <polygon points="1329.365607907473,590.0 1273.1799599989595,740.8195198546559 1155.3026032894898,834.9017183672936 1023.3803905662265,867.687634818802 888.625959298386,902.7101043844532 778.0265995981124,818.1874266135815 729.8674247744904,700.8260071894198 737.783670042235,590.0 648.2189947270696,439.8541812342605 709.8324607708777,276.2998280360022 880.8643548035036,243.2840844280828 1012.4720460339722,360.104945281902 1053.612262324886,472.6139359257163 1175.5070317732368,486.21728332346146" fill="var(--background)" stroke="var(--primary-text)" stroke-width="4" stroke-opacity="0.3"/>
    <polygon points="1329.365607907473,590.0 1273.1799599989595,740.8195198546559 1227.0127834971343,718.5865794293695 1276.9584554769426,590.0" fill="var(--accent-1)" fill-opacity="0.18" stroke="var(--primary-text)" stroke-width="1.5" stroke-opacity="0.2"/>
    <polygon points="1273.1799599989595,740.8195198546559 1155.3026032894898,834.9017183672936 1122.5211643726343,793.7950941540444 1227.0127834971343,718.5865794293695" fill="var(--accent-2)" fill-opacity="0.14" stroke="var(--primary-text)" stroke-width="1.5" stroke-opacity="0.2"/>
    <polygon points="1155.3026032894898,834.9017183672936 1023.3803905662265,867.687634818802 1014.2706016482189,827.7750417321942 1122.5211643726343,793.7950941540444" fill="var(--accent-3)" fill-opacity="0.30" stroke="var(--primary-text)" stroke-width="1.5" stroke-opacity="0.2"/>
    <polygon points="1023.3803905662265,867.687634818802 888.625959298386,902.7101043844532 897.9549703193385,861.8370365086728 1014.2706016482189,827.7750417321942" fill="var(--accent-4)" fill-opacity="0.20" stroke="var(--primary-text)" stroke-width="1.5" stroke-opacity="0.2"/>
    <polygon points="888.625959298386,902.7101043844532 778.0265995981124,818.1874266135815 811.4764694693029,776.2426164951299 897.9549703193385,861.8370365086728" fill="var(--accent-5)" fill-opacity="0.12" stroke="var(--primary-text)" stroke-width="1.5" stroke-opacity="0.2"/>
    <polygon points="778.0265995981124,818.1874266135815 729.8674247744904,700.8260071894198 758.8766385561854,686.8559061205939 811.4764694693029,776.2426164951299" fill="var(--accent-6)" fill-opacity="0.11" stroke="var(--primary-text)" stroke-width="1.5" stroke-opacity="0.2"/>
    <polygon points="729.8674247744904,700.8260071894198 737.783670042235,590.0 767.1533316361352,590.0 758.8766385561854,686.8559061205939" fill="var(--accent-1)" fill-opacity="0.12" stroke="var(--primary-text)" stroke-width="1.5" stroke-opacity="0.2"/>
    <polygon points="737.783670042235,590.0 648.2189947270696,439.8541812342605 697.8647317436248,463.7623081134269 767.1533316361352,590.0" fill="var(--accent-2)" fill-opacity="0.23" stroke="var(--primary-text)" stroke-width="1.5" stroke-opacity="0.2"/>
    <polygon points="648.2189947270696,439.8541812342605 709.8324607708777,276.2998280360022 751.6536920232186,328.7419932986575 697.8647317436248,463.7623081134269" fill="var(--accent-3)" fill-opacity="0.26" stroke="var(--primary-text)" stroke-width="1.5" stroke-opacity="0.2"/>
    <polygon points="709.8324607708777,276.2998280360022 880.8643548035036,243.2840844280828 890.6999119860883,286.37647604569446 751.6536920232186,328.7419932986575" fill="var(--accent-4)" fill-opacity="0.18" stroke="var(--primary-text)" stroke-width="1.5" stroke-opacity="0.2"/>
    <polygon points="880.8643548035036,243.2840844280828 1012.4720460339722,360.104945281902 1003.8740164401745,397.7753742690661 890.6999119860883,286.37647604569446" fill="var(--accent-5)" fill-opacity="0.11" stroke="var(--primary-text)" stroke-width="1.5" stroke-opacity="0.2"/>
    <polygon points="1012.4720460339722,360.104945281902 1053.612262324886,472.6139359257163 1034.492046707812,496.58992795708616 1003.8740164401745,397.7753742690661" fill="var(--accent-6)" fill-opacity="0.18" stroke="var(--primary-text)" stroke-width="1.5" stroke-opacity="0.2"/>
    <polygon points="1053.612262324886,472.6139359257163 1175.5070317732368,486.21728332346146 1135.9140572190925,505.28425495182967 1034.492046707812,496.58992795708616" fill="var(--accent-1)" fill-opacity="0.30" stroke="var(--primary-text)" stroke-width="1.5" stroke-opacity="0.2"/>
    <polygon points="1175.5070317732368,486.21728332346146 1329.365607907473,590.0 1276.9584554769426,590.0 1135.9140572190925,505.28425495182967" fill="var(--accent-2)" fill-opacity="0.21" stroke="var(--primary-text)" stroke-width="1.5" stroke-opacity="0.2"/>
    <polygon points="1276.9584554769426,590.0 1227.0127834971343,718.5865794293695 1181.0950505003243,696.4737646649249 1225.5058128621804,590.0" fill="var(--accent-2)" fill-opacity="0.44" stroke="var(--primary-text)" stroke-width="1.5" stroke-opacity="0.2"/>
    <polygon points="1227.0127834971343,718.5865794293695 1122.5211643726343,793.7950941540444 1100.541649227624,766.2336539211447 1181.0950505003243,696.4737646649249" fill="var(--accent-3)" fill-opacity="0.42" stroke="var(--primary-text)" stroke-width="1.5" stroke-opacity="0.2"/>
    <polygon points="1122.5211643726343,793.7950941540444 1014.2706016482189,827.7750417321942 1005.3886760310498,788.8607829964254 1100.541649227624,766.2336539211447" fill="var(--accent-4)" fill-opacity="0.25" stroke="var(--primary-text)" stroke-width="1.5" stroke-opacity="0.2"/>
    <polygon points="1014.2706016482189,827.7750417321942 897.9549703193385,861.8370365086728 909.8769413339511,809.6034686204025 1005.3886760310498,788.8607829964254" fill="var(--accent-5)" fill-opacity="0.39" stroke="var(--primary-text)" stroke-width="1.5" stroke-opacity="0.2"/>
    <polygon points="897.9549703193385,861.8370365086728 811.4764694693029,776.2426164951299 826.7189626398839,757.1291346121267 909.8769413339511,809.6034686204025" fill="var(--accent-6)" fill-opacity="0.39" stroke="var(--primary-text)" stroke-width="1.5" stroke-opacity="0.2"/>
    <polygon points="811.4764694693029,776.2426164951299 758.8766385561854,686.8559061205939 801.0959322352562,666.5241658607722 826.7189626398839,757.1291346121267" fill="var(--accent-1)" fill-opacity="0.36" stroke="var(--primary-text)" stroke-width="1.5" stroke-opacity="0.2"/>
    <polygon points="758.8766385561854,686.8559061205939 767.1533316361352,590.0 803.4077564040999,590.0 801.0959322352562,666.5241658607722" fill="var(--accent-2)" fill-opacity="0.30" stroke="var(--primary-text)" stroke-width="1.5" stroke-opacity="0.2"/>
    <polygon points="767.1533316361352,590.0 697.8647317436248,463.7623081134269 735.8176293602728,482.0394603158053 803.4077564040999,590.0" fill="var(--accent-3)" fill-opacity="0.38" stroke="var(--primary-text)" stroke-width="1.5" stroke-opacity="0.2"/>
    <polygon points="697.8647317436248,463.7623081134269 751.6536920232186,328.7419932986575 783.4048054012558,368.5566301513479 735.8176293602728,482.0394603158053" fill="var(--accent-4)" fill-opacity="0.27" stroke="var(--primary-text)" stroke-width="1.5" stroke-opacity="0.2"/>
    <polygon points="751.6536920232186,328.7419932986575 890.6999119860883,286.37647604569446 902.9953012169406,340.246096036823 783.4048054012558,368.5566301513479" fill="var(--accent-5)" fill-opacity="0.34" stroke="var(--primary-text)" stroke-width="1.5" stroke-opacity="0.2"/>
    <polygon points="890.6999119860883,286.37647604569446 1003.8740164401745,397.7753742690661 997.0746816559017,427.5652063877722 902.9953012169406,340.246096036823" fill="var(--accent-6)" fill-opacity="0.34" stroke="var(--primary-text)" stroke-width="1.5" stroke-opacity="0.2"/>
    <polygon points="1003.8740164401745,397.7753742690661 1034.492046707812,496.58992795708616 1028.0795526999707,504.630941108419 997.0746816559017,427.5652063877722" fill="var(--accent-1)" fill-opacity="0.44" stroke="var(--primary-text)" stroke-width="1.5" stroke-opacity="0.2"/>
    <polygon points="1034.492046707812,496.58992795708616 1135.9140572190925,505.28425495182967 1102.670960423533,521.2932866191331 1028.0795526999707,504.630941108419" fill="var(--accent-2)" fill-opacity="0.43" stroke="var(--primary-text)" stroke-width="1.5" stroke-opacity="0.2"/>
    <polygon points="1135.9140572190925,505.28425495182967 1276.9584554769426,590.0 1225.5058128621804,590.0 1102.670960423533,521.2932866191331" fill="var(--accent-3)" fill-opacity="0.30" stroke="var(--primary-text)" stroke-width="1.5" stroke-opacity="0.2"/>
    <polygon points="1225.5058128621804,590.0 1181.0950505003243,696.4737646649249 1128.453880239427,671.1231131629511 1157.709049862141,590.0" fill="var(--accent-3)" fill-opacity="0.50" stroke="var(--accent-3)" stroke-width="1.5" stroke-opacity="0.8"/>
    <polygon points="1181.0950505003243,696.4737646649249 1100.541649227624,766.2336539211447 1062.1765234682725,718.1253078694763 1128.453880239427,671.1231131629511" fill="var(--accent-4)" fill-opacity="0.44" stroke="var(--accent-4)" stroke-width="1.5" stroke-opacity="0.8"/>
    <polygon points="1100.541649227624,766.2336539211447 1005.3886760310498,788.8607829964254 993.670022380853,737.5180066848212 1062.1765234682725,718.1253078694763" fill="var(--accent-5)" fill-opacity="0.58" stroke="var(--accent-5)" stroke-width="1.5" stroke-opacity="0.8"/>
    <polygon points="1005.3886760310498,788.8607829964254 909.8769413339511,809.6034686204025 922.519988305612,754.2106605436671 993.670022380853,737.5180066848212" fill="var(--accent-6)" fill-opacity="0.57" stroke="var(--accent-6)" stroke-width="1.5" stroke-opacity="0.8"/>
    <polygon points="909.8769413339511,809.6034686204025 826.7189626398839,757.1291346121267 862.6832536630477,712.0313400969203 922.519988305612,754.2106605436671" fill="var(--accent-1)" fill-opacity="0.46" stroke="var(--accent-1)" stroke-width="1.5" stroke-opacity="0.8"/>
    <polygon points="826.7189626398839,757.1291346121267 801.0959322352562,666.5241658607722 830.9821344231524,652.1317294345314 862.6832536630477,712.0313400969203" fill="var(--accent-2)" fill-opacity="0.53" stroke="var(--accent-2)" stroke-width="1.5" stroke-opacity="0.8"/>
    <polygon points="801.0959322352562,666.5241658607722 803.4077564040999,590.0 840.4843749438276,590.0 830.9821344231524,652.1317294345314" fill="var(--accent-3)" fill-opacity="0.52" stroke="var(--accent-3)" stroke-width="1.5" stroke-opacity="0.8"/>
    <polygon points="803.4077564040999,590.0 735.8176293602728,482.0394603158053 790.859705241666,508.5463270267623 840.4843749438276,590.0" fill="var(--accent-4)" fill-opacity="0.43" stroke="var(--accent-4)" stroke-width="1.5" stroke-opacity="0.8"/>
    <polygon points="735.8176293602728,482.0394603158053 783.4048054012558,368.5566301513479 826.0302415004955,422.00723639537057 790.859705241666,508.5463270267623" fill="var(--accent-5)" fill-opacity="0.55" stroke="var(--accent-5)" stroke-width="1.5" stroke-opacity="0.8"/>
    <polygon points="783.4048054012558,368.5566301513479 902.9953012169406,340.246096036823 917.5124413953304,403.8498429442799 826.0302415004955,422.00723639537057" fill="var(--accent-6)" fill-opacity="0.51" stroke="var(--accent-6)" stroke-width="1.5" stroke-opacity="0.8"/>
    <polygon points="902.9953012169406,340.246096036823 997.0746816559017,427.5652063877722 990.8029210521667,455.043584994183 917.5124413953304,403.8498429442799" fill="var(--accent-1)" fill-opacity="0.56" stroke="var(--accent-1)" stroke-width="1.5" stroke-opacity="0.8"/>
    <polygon points="997.0746816559017,427.5652063877722 1028.0795526999707,504.630941108419 1013.3327153389969,523.1228902650425 990.8029210521667,455.043584994183" fill="var(--accent-2)" fill-opacity="0.51" stroke="var(--accent-2)" stroke-width="1.5" stroke-opacity="0.8"/>
    <polygon points="1028.0795526999707,504.630941108419 1102.670960423533,521.2932866191331 1080.495340247857,531.9725024520548 1013.3327153389969,523.1228902650425" fill="var(--accent-3)" fill-opacity="0.40" stroke="var(--accent-3)" stroke-width="1.5" stroke-opacity="0.8"/>
    <polygon points="1102.670960423533,521.2932866191331 1225.5058128621804,590.0 1157.709049862141,590.0 1080.495340247857,531.9725024520548" fill="var(--accent-4)" fill-opacity="0.46" stroke="var(--accent-4)" stroke-width="1.5" stroke-opacity="0.8"/>
    <polygon points="1157.709049862141,590.0 1128.453880239427,671.1231131629511 1089.4007062346923,652.316095778397 1101.1690161269512,590.0" fill="var(--accent-4)" fill-opacity="0.55" stroke="var(--accent-4)" stroke-width="1.5" stroke-opacity="0.8"/>
    <polygon points="1128.453880239427,671.1231131629511 1062.1765234682725,718.1253078694763 1033.9237390663855,682.6974368009744 1089.4007062346923,652.316095778397" fill="var(--accent-5)" fill-opacity="0.74" stroke="var(--accent-5)" stroke-width="1.5" stroke-opacity="0.8"/>
    <polygon points="1062.1765234682725,718.1253078694763 993.670022380853,737.5180066848212 984.8156824728219,698.7246088376788 1033.9237390663855,682.6974368009744" fill="var(--accent-6)" fill-opacity="0.73" stroke="var(--accent-6)" stroke-width="1.5" stroke-opacity="0.8"/>
    <polygon points="993.670022380853,737.5180066848212 922.519988305612,754.2106605436671 929.2717998558128,724.629041317789 984.8156824728219,698.7246088376788" fill="var(--accent-1)" fill-opacity="0.72" stroke="var(--accent-1)" stroke-width="1.5" stroke-opacity="0.8"/>
    <polygon points="922.519988305612,754.2106605436671 862.6832536630477,712.0313400969203 885.464871388611,683.4640950412704 929.2717998558128,724.629041317789" fill="var(--accent-2)" fill-opacity="0.61" stroke="var(--accent-2)" stroke-width="1.5" stroke-opacity="0.8"/>
    <polygon points="862.6832536630477,712.0313400969203 830.9821344231524,652.1317294345314 866.9207709862766,634.8245942311825 885.464871388611,683.4640950412704" fill="var(--accent-3)" fill-opacity="0.56" stroke="var(--accent-3)" stroke-width="1.5" stroke-opacity="0.8"/>
    <polygon points="830.9821344231524,652.1317294345314 840.4843749438276,590.0 867.4211829970965,590.0 866.9207709862766,634.8245942311825" fill="var(--accent-4)" fill-opacity="0.73" stroke="var(--accent-4)" stroke-width="1.5" stroke-opacity="0.8"/>
    <polygon points="840.4843749438276,590.0 790.859705241666,508.5463270267623 829.1096197629961,526.9665150317924 867.4211829970965,590.0" fill="var(--accent-5)" fill-opacity="0.74" stroke="var(--accent-5)" stroke-width="1.5" stroke-opacity="0.8"/>
    <polygon points="790.859705241666,508.5463270267623 826.0302415004955,422.00723639537057 856.4913217050912,460.204222814296 829.1096197629961,526.9665150317924" fill="var(--accent-6)" fill-opacity="0.57" stroke="var(--accent-6)" stroke-width="1.5" stroke-opacity="0.8"/>
    <polygon points="826.0302415004955,422.00723639537057 917.5124413953304,403.8498429442799 929.5515914430777,456.5968057212666 856.4913217050912,460.204222814296" fill="var(--accent-1)" fill-opacity="0.65" stroke="var(--accent-1)" stroke-width="1.5" stroke-opacity="0.8"/>
    <polygon points="917.5124413953304,403.8498429442799 990.8029210521667,455.043584994183 978.9064685991008,507.1653487591812 929.5515914430777,456.5968057212666" fill="var(--accent-2)" fill-opacity="0.56" stroke="var(--accent-2)" stroke-width="1.5" stroke-opacity="0.8"/>
    <polygon points="990.8029210521667,455.043584994183 1013.3327153389969,523.1228902650425 995.1436420799689,545.931266710705 978.9064685991008,507.1653487591812" fill="var(--accent-3)" fill-opacity="0.70" stroke="var(--accent-3)" stroke-width="1.5" stroke-opacity="0.8"/>
    <polygon points="1013.3327153389969,523.1228902650425 1080.495340247857,531.9725024520548 1042.0176479086513,550.5023824729012 995.1436420799689,545.931266710705" fill="var(--accent-4)" fill-opacity="0.70" stroke="var(--accent-4)" stroke-width="1.5" stroke-opacity="0.8"/>
    <polygon points="1080.495340247857,531.9725024520548 1157.709049862141,590.0 1101.1690161269512,590.0 1042.0176479086513,550.5023824729012" fill="var(--accent-5)" fill-opacity="0.58" stroke="var(--accent-5)" stroke-width="1.5" stroke-opacity="0.8"/>
    <polygon points="1101.1690161269512,590.0 1089.4007062346923,652.316095778397 1046.2759472778887,631.5483064226077 1046.5610588485947,590.0" fill="var(--accent-5)" fill-opacity="0.80" stroke="var(--accent-5)" stroke-width="1.5" stroke-opacity="0.8"/>
    <polygon points="1089.4007062346923,652.316095778397 1033.9237390663855,682.6974368009744 1013.5188783594822,657.1105507789854 1046.2759472778887,631.5483064226077" fill="var(--accent-6)" fill-opacity="0.81" stroke="var(--accent-6)" stroke-width="1.5" stroke-opacity="0.8"/>
    <polygon points="1033.9237390663855,682.6974368009744 984.8156824728219,698.7246088376788 975.0203366206069,655.8083945696155 1013.5188783594822,657.1105507789854" fill="var(--accent-1)" fill-opacity="0.75" stroke="var(--accent-1)" stroke-width="1.5" stroke-opacity="0.8"/>
    <polygon points="984.8156824728219,698.7246088376788 929.2717998558128,724.629041317789 941.4647226851097,671.2083559646786 975.0203366206069,655.8083945696155" fill="var(--accent-2)" fill-opacity="0.87" stroke="var(--accent-2)" stroke-width="1.5" stroke-opacity="0.8"/>
    <polygon points="929.2717998558128,724.629041317789 885.464871388611,683.4640950412704 915.8080988060893,645.4148913430731 941.4647226851097,671.2083559646786" fill="var(--accent-3)" fill-opacity="0.78" stroke="var(--accent-3)" stroke-width="1.5" stroke-opacity="0.8"/>
    <polygon points="885.464871388611,683.4640950412704 866.9207709862766,634.8245942311825 894.9969667412183,621.3038109629309 915.8080988060893,645.4148913430731" fill="var(--accent-4)" fill-opacity="0.74" stroke="var(--accent-4)" stroke-width="1.5" stroke-opacity="0.8"/>
    <polygon points="866.9207709862766,634.8245942311825 867.4211829970965,590.0 905.2688804588108,590.0 894.9969667412183,621.3038109629309" fill="var(--accent-5)" fill-opacity="0.81" stroke="var(--accent-5)" stroke-width="1.5" stroke-opacity="0.8"/>
    <polygon points="867.4211829970965,590.0 829.1096197629961,526.9665150317924 886.2914616860005,554.5038387585756 905.2688804588108,590.0" fill="var(--accent-6)" fill-opacity="0.85" stroke="var(--accent-6)" stroke-width="1.5" stroke-opacity="0.8"/>
    <polygon points="829.1096197629961,526.9665150317924 856.4913217050912,460.204222814296 900.617618493206,515.5368488345252 886.2914616860005,554.5038387585756" fill="var(--accent-1)" fill-opacity="0.74" stroke="var(--accent-1)" stroke-width="1.5" stroke-opacity="0.8"/>
    <polygon points="856.4913217050912,460.204222814296 929.5515914430777,456.5968057212666 939.9429748102931,502.1244309687372 900.617618493206,515.5368488345252" fill="var(--accent-2)" fill-opacity="0.76" stroke="var(--accent-2)" stroke-width="1.5" stroke-opacity="0.8"/>
    <polygon points="929.5515914430777,456.5968057212666 978.9064685991008,507.1653487591812 972.0621123312841,537.1524328854825 939.9429748102931,502.1244309687372" fill="var(--accent-3)" fill-opacity="0.90" stroke="var(--accent-3)" stroke-width="1.5" stroke-opacity="0.8"/>
    <polygon points="978.9064685991008,507.1653487591812 995.1436420799689,545.931266710705 984.4578356269114,559.3308441787791 972.0621123312841,537.1524328854825" fill="var(--accent-4)" fill-opacity="0.83" stroke="var(--accent-4)" stroke-width="1.5" stroke-opacity="0.8"/>
    <polygon points="995.1436420799689,545.931266710705 1042.0176479086513,550.5023824729012 1021.0452786046092,560.602143225986 984.4578356269114,559.3308441787791" fill="var(--accent-5)" fill-opacity="0.79" stroke="var(--accent-5)" stroke-width="1.5" stroke-opacity="0.8"/>
    <polygon points="1042.0176479086513,550.5023824729012 1101.1690161269512,590.0 1046.5610588485947,590.0 1021.0452786046092,560.602143225986" fill="var(--accent-6)" fill-opacity="0.80" stroke="var(--accent-6)" stroke-width="1.5" stroke-opacity="0.8"/>
    <ellipse id="GEODE_CAVITY_GLOW" cx="988" cy="594" rx="156" ry="122" fill="url(#svg15e8a719-geode-cavity-glow)" opacity="0.94"/>
    <polygon points="1046.5610588485947,590.0 1046.2759472778887,631.5483064226077 1013.5188783594822,657.1105507789854 975.0203366206069,655.8083945696155 941.4647226851097,671.2083559646786 915.8080988060893,645.4148913430731 894.9969667412183,621.3038109629309 905.2688804588108,590.0 886.2914616860005,554.5038387585756 900.617618493206,515.5368488345252 939.9429748102931,502.1244309687372 972.0621123312841,537.1524328854825 984.4578356269114,559.3308441787791 1021.0452786046092,560.602143225986" fill="url(#svg15e8a719-core-glow)" stroke="var(--accent-1)" stroke-width="3"/>
    <!-- Geometry for Node 1 -->
    <path id="ITEM_1_CONN" d="M 670.8229841257236 712.2620813265819 L 570.8229841257236 712.2620813265819 L 300 765.2382540388927" fill="transparent" stroke="var(--accent-1)" stroke-width="2" stroke-dasharray="6 4" opacity="0.8" stroke-opacity="1.0"/>
    <circle id="ITEM_1_DOT" cx="670.8229841257236" cy="712.2620813265819" r="8" fill="var(--background)" stroke="var(--accent-1)" stroke-width="3"/>
    <g transform="translate(300, 765.2382540388927)">
      <circle id="ITEM_1_BORDER" cx="0" cy="0" r="37" fill="var(--background)" stroke="var(--accent-1)" stroke-width="3"/>
      <circle id="ITEM_1_STROKE" cx="0" cy="0" r="45" fill="transparent" stroke="var(--accent-1)" stroke-width="3" stroke-dasharray="6 4" stroke-opacity="1.0"/>
      <circle id="ITEM_1_PAD" cx="0.00" cy="0.00" r="40.00" fill="var(--icon-pad-bg)" stroke="var(--primary-text)" stroke-width="2" opacity="0.9"/>
      <circle id="ITEM_1_PAD_INNER" cx="0.00" cy="0.00" r="31.20" fill="var(--accent-1)" fill-opacity="0.22"/>
      <g id="ITEM_1_ICON" transform="translate(-25, -25)" data-icon-size="50" stroke-dasharray="6 4">
        <g transform="translate(-8.844067796610172,-8.844067796610172) scale(2.820338983050848)" vector-effect="non-scaling-stroke" stroke-width="2.31" stroke-linecap="round" stroke-linejoin="round" stroke-opacity="1.0">
          <path d="m2 2 20 20" vector-effect="non-scaling-stroke" fill="none" stroke="#f1f5f9"/>
          <path d="M8.35 2.69A10 10 0 0 1 21.3 15.65" vector-effect="non-scaling-stroke" fill="none" stroke="#f1f5f9"/>
          <path d="M19.08 19.08A10 10 0 1 1 4.92 4.92" vector-effect="non-scaling-stroke" fill="none" stroke="#f1f5f9"/>
        </g>
      </g>
    </g>
    <rect id="ITEM_1_HEAD_FRAME" x="10" y="705.2382540388927" width="230" height="40" fill="none" pointer-events="none"/>
    <rect id="ITEM_1_BODY_FRAME" x="8" y="755.2382540388927" width="240" height="120" fill="none" pointer-events="none"/>
    <rect id="ITEM_1_TEXT_BG" x="-10" y="691.2382540388927" width="276" height="202" rx="22" fill="var(--panel)" fill-opacity="0.94" stroke="var(--accent-1)" stroke-width="2"/>
    <text id="ITEM_1_HEAD" x="10.0" y="705.2382540388927" font-family="var(--font-heading)" font-size="24" font-weight="bold" fill="var(--accent-1)" text-anchor="start" data-bg-id="ITEM_1_TEXT_BG" fill-opacity="1.0" stroke="none" style="font-size: 30px; font-family: Inter, Segoe UI, Kalam, Roboto, Helvetica, Arial, sans-serif; font-weight: 700; letter-spacing:-0.4px;" data-final-font-size="30">
      <tspan x="10.0" dy="28.25px">Data Asymmetry</tspan>
    </text>
    <text id="ITEM_1_BODY" x="8.0" y="755.2382540388927" font-family="var(--font-body)" font-size="18" fill="var(--primary-text)" text-anchor="start" data-bg-id="ITEM_1_TEXT_BG" style="font-size: 26px; font-family: Inter, Segoe UI, Kalam, Roboto, Helvetica, Arial, sans-serif; font-weight: 400;" data-final-font-size="26">
      <tspan x="8.0" dy="20.88px">Public trackers</tspan>
      <tspan x="8.0" dy="29.90px">lack access to</tspan>
      <tspan x="8.0" dy="29.90px">classified</tspan>
      <tspan x="8.0" dy="29.90px">military movements</tspan>
    </text>
    <!-- Geometry for Node 2 -->
    <path id="ITEM_2_CONN" d="M 721.854222221184 489.3135800839915 L 621.854222221184 489.3135800839915 L 300 414.76174596110735" fill="transparent" stroke="var(--accent-2)" stroke-width="2" stroke-dasharray="6 4" opacity="0.8" stroke-opacity="1.0"/>
    <circle id="ITEM_2_DOT" cx="721.854222221184" cy="489.3135800839915" r="8" fill="var(--background)" stroke="var(--accent-2)" stroke-width="3"/>
    <g transform="translate(300, 414.76174596110735)">
      <circle id="ITEM_2_BORDER" cx="0" cy="0" r="37" fill="var(--background)" stroke="var(--accent-2)" stroke-width="3"/>
      <circle id="ITEM_2_STROKE" cx="0" cy="0" r="45" fill="transparent" stroke="var(--accent-2)" stroke-width="3" stroke-dasharray="6 4" stroke-opacity="1.0"/>
      <circle id="ITEM_2_PAD" cx="0.00" cy="0.00" r="40.00" fill="var(--icon-pad-bg)" stroke="var(--primary-text)" stroke-width="2" opacity="0.9"/>
      <circle id="ITEM_2_PAD_INNER" cx="0.00" cy="0.00" r="31.20" fill="var(--accent-2)" fill-opacity="0.22"/>
      <g id="ITEM_2_ICON" transform="translate(-25, -25)" data-icon-size="50" stroke-dasharray="6 4">
        <g transform="translate(-11.533333333333339,-9.93333333333334) scale(0.13333333333333336)" vector-effect="non-scaling-stroke" fill="#f1f5f9" fill-opacity="1.0" stroke="none">
          <path fill="#f1f5f9" d="M227.47 31.47c-67.048 70.547-83.972 178.936-32.907 267.467c51.07 88.544 153.333 128.083 247.906 105.22l-215-372.688zm232.81 82.155a31.1 31.1 0 0 0-14.81 4.188c-11.303 6.53-17.02 19.035-15.44 31.218l-96.31 29.25l34.842 60.345L442 169.812c9.755 7.504 23.456 8.826 34.78 2.282c14.992-8.663 20.117-27.822 11.47-42.813c-5.945-10.305-16.856-15.948-27.97-15.655zm-311.874 107.5l-26.656 4.688l10.688 60.53l-42.063 39.376l18.688 32.124l58.656-17.813l3.155 4.158L53.53 493.094h78.345l85.344-21.53l52.686 21.53h50.563l-7.064-45.78l.813-.22l-.97-.625l-4.75-30.72c-6.82-2.366-13.532-5.066-20.125-8.03l3.844 24.967l-51-33.437l18.75-6.594a241 241 0 0 1-19.033-13.125l-19.375 6.814l-39.625-26l5.813-7.375l15.156-9.658a242.3 242.3 0 0 1-24.53-35.03c-16-27.74-25.828-57.3-29.97-87.157zm21.906 153.97l29.094 19.06l-61.062 21.5l31.97-40.56zm48.72 31.967l49.343 32.344l-49.78 12.563l-58.845-24.033l59.28-20.875zm-94.813 26.532l5.718 2.312l58.125 23.75L82.75 486.22l41.47-52.626zm170.968 18.312l5.187 33.438l-52.625-21.47l45.813-11.562z" vector-effect="non-scaling-stroke" stroke="none"/>
        </g>
      </g>
    </g>
    <rect id="ITEM_2_HEAD_FRAME" x="10" y="354.76174596110735" width="230" height="40" fill="none" pointer-events="none"/>
    <rect id="ITEM_2_BODY_FRAME" x="8" y="404.76174596110735" width="240" height="120" fill="none" pointer-events="none"/>
    <rect id="ITEM_2_TEXT_BG" x="-10" y="340.76174596110735" width="276" height="202" rx="22" fill="var(--panel)" fill-opacity="0.94" stroke="var(--accent-2)" stroke-width="2"/>
    <text id="ITEM_2_HEAD" x="10.0" y="354.76174596110735" font-family="var(--font-heading)" font-size="24" font-weight="bold" fill="var(--accent-2)" text-anchor="start" data-bg-id="ITEM_2_TEXT_BG" fill-opacity="1.0" stroke="none" style="font-size: 27px; font-family: Inter, Segoe UI, Kalam, Roboto, Helvetica, Arial, sans-serif; font-weight: 700; letter-spacing:-0.4px;" data-final-font-size="27">
      <tspan x="10.0" dy="26.08px">Sensor Complexity</tspan>
    </text>
    <text id="ITEM_2_BODY" x="8.0" y="404.76174596110735" font-family="var(--font-body)" font-size="18" fill="var(--primary-text)" text-anchor="start" data-bg-id="ITEM_2_TEXT_BG" style="font-size: 26px; font-family: Inter, Segoe UI, Kalam, Roboto, Helvetica, Arial, sans-serif; font-weight: 400;" data-final-font-size="26">
      <tspan x="8.0" dy="20.88px">Dense radar</tspan>
      <tspan x="8.0" dy="29.90px">networks generate</tspan>
      <tspan x="8.0" dy="29.90px">ambiguous and</tspan>
      <tspan x="8.0" dy="29.90px">incomplete returns</tspan>
    </text>
    <!-- Geometry for Node 3 -->
    <path id="ITEM_3_CONN" d="M 1147.1145396833554 510.88924149456466 L 1247.1145396833554 510.88924149456466 L 1620 414.7617459611073" fill="transparent" stroke="var(--accent-3)" stroke-width="2" stroke-dasharray="6 4" opacity="0.8" stroke-opacity="1.0"/>
    <circle id="ITEM_3_DOT" cx="1147.1145396833554" cy="510.88924149456466" r="8" fill="var(--background)" stroke="var(--accent-3)" stroke-width="3"/>
    <g transform="translate(1620, 414.7617459611073)">
      <circle id="ITEM_3_BORDER" cx="0" cy="0" r="37" fill="var(--background)" stroke="var(--accent-3)" stroke-width="3"/>
      <circle id="ITEM_3_STROKE" cx="0" cy="0" r="45" fill="transparent" stroke="var(--accent-3)" stroke-width="3" stroke-dasharray="6 4" stroke-opacity="1.0"/>
      <circle id="ITEM_3_PAD" cx="0.00" cy="0.00" r="40.00" fill="var(--icon-pad-bg)" stroke="var(--primary-text)" stroke-width="2" opacity="0.9"/>
      <circle id="ITEM_3_PAD_INNER" cx="0.00" cy="0.00" r="31.20" fill="var(--accent-3)" fill-opacity="0.22"/>
      <g id="ITEM_3_ICON" transform="translate(-25, -25)" data-icon-size="50" stroke-dasharray="6 4">
        <g transform="translate(-10.65714285714286,-20.685714285714287) scale(2.2285714285714286)">
          <path d="M5.5 11C5.22386 11 5 11.2239 5 11.5V13H9V11.5C9 11.2239 8.77614 11 8.5 11H5.5Z" fill="#D3D3D3"/>
          <path d="M21.5 11C21.2239 11 21 11.2239 21 11.5V13H27V11.5C27 11.2239 26.7761 11 26.5 11H21.5Z" fill="#D3D3D3"/>
          <path d="M2 14C2 12.8954 2.89543 12 4 12H28C29.1046 12 30 12.8954 30 14V16.5L28 22L30 27.5V28C30 29.1046 29.1046 30 28 30H4C2.89543 30 2 29.1046 2 28V27.5L3.5 22L2 16.5V14Z" fill="#E6E6E6"/>
          <path d="M2 16.5C2 16.2239 2.22386 16 2.5 16H29.5C29.7761 16 30 16.2239 30 16.5V27.5C30 27.7761 29.7761 28 29.5 28H2.5C2.22386 28 2 27.7761 2 27.5V16.5Z" fill="#533566"/>
          <path d="M22 22C22 25.3137 19.3137 28 16 28C12.6863 28 10 25.3137 10 22C10 18.6863 12.6863 16 16 16C19.3137 16 22 18.6863 22 22Z" fill="#321B41"/>
          <path d="M16 27C18.7614 27 21 24.7614 21 22C21 19.2386 18.7614 17 16 17C13.2386 17 11 19.2386 11 22C11 24.7614 13.2386 27 16 27ZM16 29C12.134 29 9 25.866 9 22C9 18.134 12.134 15 16 15C19.866 15 23 18.134 23 22C23 25.866 19.866 29 16 29Z" fill="#9B9B9B"/>
          <path d="M18.5 22C18.5 23.3807 17.3807 24.5 16 24.5C14.6193 24.5 13.5 23.3807 13.5 22C13.5 20.6193 14.6193 19.5 16 19.5C17.3807 19.5 18.5 20.6193 18.5 22Z" fill="#433B6B"/>
          <path d="M19.0825 19.875C19.4967 20.5924 19.4448 21.3979 18.9665 21.674C18.4882 21.9501 17.7647 21.5924 17.3505 20.875C16.9363 20.1575 16.9882 19.3521 17.4665 19.0759C17.9448 18.7998 18.6683 19.1575 19.0825 19.875Z" fill="white"/>
        </g>
      </g>
    </g>
    <rect id="ITEM_3_HEAD_FRAME" x="1320" y="354.7617459611073" width="280" height="40" fill="none" pointer-events="none"/>
    <rect id="ITEM_3_BODY_FRAME" x="1280" y="404.7617459611073" width="320" height="120" fill="none" pointer-events="none"/>
    <rect id="ITEM_3_TEXT_BG" x="1262" y="340.7617459611073" width="356" height="202" rx="22" fill="var(--panel)" fill-opacity="0.94" stroke="var(--accent-3)" stroke-width="2"/>
    <text id="ITEM_3_HEAD" x="1600.0" y="354.7617459611073" font-family="var(--font-heading)" font-size="24" font-weight="bold" fill="var(--accent-3)" text-anchor="end" data-bg-id="ITEM_3_TEXT_BG" fill-opacity="1.0" stroke="none" style="font-size: 30px; font-family: Inter, Segoe UI, Kalam, Roboto, Helvetica, Arial, sans-serif; font-weight: 700; letter-spacing:-0.4px;" data-final-font-size="30">
      <tspan x="1600.0" dy="28.25px">Reporting Bias</tspan>
    </text>
    <text id="ITEM_3_BODY" x="1600.0" y="404.7617459611073" font-family="var(--font-body)" font-size="18" fill="var(--primary-text)" text-anchor="end" data-bg-id="ITEM_3_TEXT_BG" style="font-size: 26px; font-family: Inter, Segoe UI, Kalam, Roboto, Helvetica, Arial, sans-serif; font-weight: 400;" data-final-font-size="26">
      <tspan x="1600.0" dy="26.86px">Concentrated monitoring</tspan>
      <tspan x="1600.0" dy="29.90px">in military zones</tspan>
      <tspan x="1600.0" dy="29.90px">inflates sighting counts</tspan>
    </text>
    <!-- Geometry for Node 4 -->
    <path id="ITEM_4_CONN" d="M 1096.0833015878948 647.5350970948621 L 1196.0833015878948 647.5350970948621 L 1620 765.2382540388927" fill="transparent" stroke="var(--accent-4)" stroke-width="2" stroke-dasharray="6 4" opacity="0.8" stroke-opacity="1.0"/>
    <circle id="ITEM_4_DOT" cx="1096.0833015878948" cy="647.5350970948621" r="8" fill="var(--background)" stroke="var(--accent-4)" stroke-width="3"/>
    <g transform="translate(1620, 765.2382540388927)">
      <circle id="ITEM_4_BORDER" cx="0" cy="0" r="37" fill="var(--background)" stroke="var(--accent-4)" stroke-width="3"/>
      <circle id="ITEM_4_STROKE" cx="0" cy="0" r="45" fill="transparent" stroke="var(--accent-4)" stroke-width="3" stroke-dasharray="6 4" stroke-opacity="1.0"/>
      <circle id="ITEM_4_PAD" cx="0.00" cy="0.00" r="40.00" fill="var(--icon-pad-bg)" stroke="var(--primary-text)" stroke-width="2" opacity="0.9"/>
      <circle id="ITEM_4_PAD_INNER" cx="0.00" cy="0.00" r="31.20" fill="var(--accent-4)" fill-opacity="0.22"/>
      <g id="ITEM_4_ICON" transform="translate(-25, -25)" data-icon-size="50" stroke-dasharray="6 4">
        <g transform="translate(-8.844067796610176,-8.844067796610172) scale(2.820338983050848)" vector-effect="non-scaling-stroke" stroke-width="2.31" stroke-linecap="round" stroke-linejoin="round" stroke-opacity="1.0">
          <path d="M15 2H6a2 2 0 0 0-2 2v16a2 2 0 0 0 2 2h12a2 2 0 0 0 2-2V7Z" vector-effect="non-scaling-stroke" fill="none" stroke="#f1f5f9"/>
          <path d="M14 2v4a2 2 0 0 0 2 2h4" vector-effect="non-scaling-stroke" fill="none" stroke="#f1f5f9"/>
        </g>
      </g>
    </g>
    <rect id="ITEM_4_HEAD_FRAME" x="1320" y="705.2382540388927" width="280" height="40" fill="none" pointer-events="none"/>
    <rect id="ITEM_4_BODY_FRAME" x="1280" y="755.2382540388927" width="320" height="120" fill="none" pointer-events="none"/>
    <rect id="ITEM_4_TEXT_BG" x="1262" y="691.2382540388927" width="356" height="202" rx="22" fill="var(--panel)" fill-opacity="0.94" stroke="var(--accent-4)" stroke-width="2"/>
    <text id="ITEM_4_HEAD" x="1600.0" y="705.2382540388927" font-family="var(--font-heading)" font-size="24" font-weight="bold" fill="var(--accent-4)" text-anchor="end" data-bg-id="ITEM_4_TEXT_BG" fill-opacity="1.0" stroke="none" style="font-size: 28px; font-family: Inter, Segoe UI, Kalam, Roboto, Helvetica, Arial, sans-serif; font-weight: 700; letter-spacing:-0.4px;" data-final-font-size="28">
      <tspan x="1600.0" dy="26.30px">Classification Walls</tspan>
    </text>
    <text id="ITEM_4_BODY" x="1600.0" y="755.2382540388927" font-family="var(--font-body)" font-size="18" fill="var(--primary-text)" text-anchor="end" data-bg-id="ITEM_4_TEXT_BG" style="font-size: 26px; font-family: Inter, Segoe UI, Kalam, Roboto, Helvetica, Arial, sans-serif; font-weight: 400;" data-final-font-size="26">
      <tspan x="1600.0" dy="26.86px">Security rules prevent</tspan>
      <tspan x="1600.0" dy="29.90px">public discussion of</tspan>
      <tspan x="1600.0" dy="29.90px">specific incidents</tspan>
    </text>
  </g>
</svg>
