<?xml version='1.0' encoding='utf-8'?>
<svg xmlns="http://www.w3.org/2000/svg" width="1920" height="1080" viewBox="0 0 1920 1080" data-theme="light">
  <style>
        @font-face {
            font-family: 'Inter';
            src: url('assets/fonts/Inter-Regular.ttf') format('truetype');
            font-weight: 400;
            font-style: normal;
            font-display: swap;
        }
        @font-face {
            font-family: 'Inter';
            src: url('assets/fonts/Inter-Bold.ttf') format('truetype');
            font-weight: 600;
            font-style: normal;
            font-display: swap;
        }
        @font-face {
            font-family: 'Inter';
            src: url('assets/fonts/Inter-Bold.ttf') format('truetype');
            font-weight: 800;
            font-style: normal;
            font-display: swap;
        }
        
:root {
    --background: #f8fafc;
    --panel: #ffffff;
    --primary-text: #0f172a;
    --muted-text: #64748b;
    --inverse-text: #ffffff;
    --border: #e2e8f0;
    --shadow-color: #000000;
    --icon-pad-bg: #1e293b;
    --art-glow: #0891b2;
    --art-glow-opacity: 0.10;
    --art-sheen: #ffffff;
    --art-sheen-opacity: 0.34;
    --art-shadow: #0f172a;
    --art-shadow-opacity: 0.14;
    --art-muted-line: #94a3b8;
    --art-panel-tint: #f1f5f9;
    --font-family: 'Inter', 'Segoe UI', 'Kalam', Roboto, Helvetica, Arial, sans-serif;
    --radius-xl: 16px;
    --font-family-headline: 'Inter', 'Segoe UI', 'Kalam', Roboto, Helvetica, Arial, sans-serif;
    --font-family-body: 'Inter', 'Segoe UI', 'Kalam', Roboto, Helvetica, Arial, sans-serif;
    --font-heading: 'Inter', 'Segoe UI', 'Kalam', Roboto, Helvetica, Arial, sans-serif;
    --font-body: 'Inter', 'Segoe UI', 'Kalam', Roboto, Helvetica, Arial, sans-serif;
    --font-size-h1: 56px;
    --font-size-h2: 40px;
    --font-size-h3: 28px;
    --font-size-body: 24px;
    --font-size-caption: 18px;
    --secondary-text: var(--muted-text);
    --panel-border: var(--border);
    --font-weight-normal: 400;
    --font-weight-medium: 500;
    --font-weight-semibold: 600;
    --font-weight-bold: 700;
    --spacing-gutter-pct: 0.07;
    --spacing-top-pct: 0.15;
    --spacing-bottom-pct: 0.07;
    --spacing-title-y-pct: 0.055;
    --accent-1: #4f46e5;
    --accent-2: #059669;
    --accent-3: #db2777;
    --accent-4: #d97706;
    --accent-5: #0284c7;
    --accent-6: #7c3aed;
    --accent-7: #dc2626;
    --accent-8: #0d9488;
    --accent-9: #ea580c;
    --accent-10: #c026d3;
}
:root[data-theme="dark"] {
    --background: #0f172a;
    --panel: #1e293b;
    --primary-text: #f1f5f9;
    --muted-text: #94a3b8;
    --inverse-text: #0f172a;
    --border: #334155;
    --shadow-color: #000000;
    --icon-pad-bg: #1e293b;
    --art-glow: #7dd3fc;
    --art-glow-opacity: 0.18;
    --art-sheen: #ffffff;
    --art-sheen-opacity: 0.18;
    --art-shadow: #000000;
    --art-shadow-opacity: 0.28;
    --art-muted-line: #64748b;
    --art-panel-tint: #1e293b;
    --accent-1: #a5b4fc;
    --accent-2: #34d399;
    --accent-3: #f472b6;
    --accent-4: #fbbf24;
    --accent-5: #38bdf8;
    --accent-6: #c084fc;
    --accent-7: #f87171;
    --accent-8: #2dd4bf;
    --accent-9: #fb923c;
    --accent-10: #e879f9;
}
:root[data-theme="light"] {
    --background: #f8fafc;
    --panel: #ffffff;
    --primary-text: #0f172a;
    --muted-text: #64748b;
    --inverse-text: #ffffff;
    --border: #e2e8f0;
    --shadow-color: #000000;
    --icon-pad-bg: #1e293b;
    --art-glow: #0891b2;
    --art-glow-opacity: 0.10;
    --art-sheen: #ffffff;
    --art-sheen-opacity: 0.34;
    --art-shadow: #0f172a;
    --art-shadow-opacity: 0.14;
    --art-muted-line: #94a3b8;
    --art-panel-tint: #f1f5f9;
    --accent-1: #4f46e5;
    --accent-2: #059669;
    --accent-3: #db2777;
    --accent-4: #d97706;
    --accent-5: #0284c7;
    --accent-6: #7c3aed;
    --accent-7: #dc2626;
    --accent-8: #0d9488;
    --accent-9: #ea580c;
    --accent-10: #c026d3;
}</style>
  <rect x="0" y="0" width="1.92E+3" height="1.08E+3" fill="#252a34" stroke="none" id="programmatic_background"/>
  <line id="HEADER_DECOR" x1="960.0" x2="1080.0" y1="135.0" y2="135.0" stroke="var(--accent-1)" stroke-width="6" stroke-linecap="round"/>
  <defs>
    <pattern id="svg4e9abdbb-napkin-hatch" patternUnits="userSpaceOnUse" width="12" height="12">
      <path d="M -3 12 L 12 -3 M 0 15 L 15 0" fill="none" stroke="var(--primary-text)" stroke-width="1" stroke-opacity="0.04"/>
    </pattern>
    <filter id="svg4e9abdbb-soft-shadow" x="-30%" y="-30%" width="160%" height="160%">
      <feDropShadow dx="0" dy="4" stdDeviation="8" flood-color="#000000" flood-opacity="0.18"/>
    </filter>
    <radialGradient id="svg4e9abdbb-universal-edge-vignette" cx="50%" cy="50%" r="72%">
      <stop offset="0%" stop-color="var(--background)" stop-opacity="0"/>
      <stop offset="72%" stop-color="var(--background)" stop-opacity="0.12"/>
      <stop offset="100%" stop-color="var(--primary-text)" stop-opacity="0.08"/>
    </radialGradient>
    <linearGradient id="svg4e9abdbb-universal-surface-sheen" x1="0%" y1="0%" x2="100%" y2="100%">
      <stop offset="0%" stop-color="var(--art-sheen)" stop-opacity="var(--art-sheen-opacity)"/>
      <stop offset="46%" stop-color="var(--art-sheen)" stop-opacity="0.035"/>
      <stop offset="100%" stop-color="var(--art-panel-tint)" stop-opacity="0.14"/>
    </linearGradient>
    <radialGradient id="svg4e9abdbb-universal-icon-aura" cx="50%" cy="42%" r="64%">
      <stop offset="0%" stop-color="var(--art-glow)" stop-opacity="var(--art-glow-opacity)"/>
      <stop offset="100%" stop-color="var(--background)" stop-opacity="0"/>
    </radialGradient>
    <linearGradient id="svg4e9abdbb-tug-rope-sheen" x1="0%" y1="0%" x2="100%" y2="0%">
      <stop offset="0%" stop-color="var(--background)" stop-opacity="0"/>
      <stop offset="50%" stop-color="var(--inverse-text)" stop-opacity="0.16"/>
      <stop offset="100%" stop-color="var(--background)" stop-opacity="0"/>
    </linearGradient>
    <filter id="svg4e9abdbb-text-glow" x="-20%" y="-20%" width="140%" height="140%">
      <feDropShadow dx="0" dy="0" stdDeviation="2" flood-color="#000000" flood-opacity="0.4"/>
    </filter>
    <filter id="svg4e9abdbb-shadow" x="-30%" y="-30%" width="160%" height="160%">
      <feDropShadow dx="0" dy="2" stdDeviation="3" flood-color="#000000" flood-opacity="0.08"/>
      <feDropShadow dx="0" dy="6" stdDeviation="10" flood-color="#000000" flood-opacity="0.12"/>
    </filter>
    <marker id="svg4e9abdbb-arrowhead" markerWidth="10" markerHeight="7" refX="9" refY="3.5" orient="auto" markerUnits="strokeWidth">
      <polygon points="0 0, 10 3.5, 0 7" fill="var(--muted-text)" opacity="0.6"/>
    </marker>
  </defs>
  <rect id="CANVAS_BG" width="100%" height="100%" fill="var(--background)"/>
  <rect width="100%" height="100%" fill="url(#svg4e9abdbb-napkin-hatch)"/>
  <rect id="UNIVERSAL_EDGE_VIGNETTE" width="100%" height="100%" fill="url(#svg4e9abdbb-universal-edge-vignette)" opacity="0.62"/>
  <text id="TITLE" x="960.0" y="59" text-anchor="middle" font-size="56" font-weight="800" fill="#0f172a" style="font-size: 60px; font-family: Inter, Segoe UI, Kalam, Roboto, Helvetica, Arial, sans-serif; font-weight: 700; letter-spacing:-1.2px;" data-final-font-size="60">
    <tspan x="960.0" dy="68.00px">The Paper-Trail Trap Mechanics</tspan>
  </text>
  <rect id="TITLE_FRAME" x="134" y="59" width="1652" height="103" fill="none"/>
  <ellipse cx="960" cy="332" rx="214" ry="60" fill="var(--panel)" fill-opacity="0.50" opacity="0.34"/>
  <path d="M 182 320 Q 616 302 934 332" fill="none" stroke="var(--primary-text)" stroke-width="16" stroke-linecap="round" opacity="0.10"/>
  <path d="M 1738 320 Q 1304 302 986 332" fill="none" stroke="var(--primary-text)" stroke-width="16" stroke-linecap="round" opacity="0.10"/>
  <path d="M 220 320 Q 618 306 936 332" fill="none" stroke="var(--muted-text)" stroke-width="8" stroke-linecap="round" opacity="0.88"/>
  <path d="M 1700 320 Q 1302 306 984 332" fill="none" stroke="var(--muted-text)" stroke-width="8" stroke-linecap="round" opacity="0.88"/>
  <circle cx="960" cy="332" r="24" fill="var(--panel)" fill-opacity="0.94" stroke="var(--primary-text)" stroke-width="3"/>
  <path d="M 960 308 L 982 332 L 960 356 L 938 332 Z" fill="var(--primary-text)"/>
  <path d="M 960 356 L 960 666" fill="none" stroke="var(--primary-text)" stroke-width="12" stroke-linecap="round" opacity="0.10"/>
  <path d="M 960 356 L 960 666" fill="none" stroke="var(--muted-text)" stroke-width="6" stroke-linecap="round" opacity="0.78"/>
  <ellipse cx="960" cy="690" rx="106" ry="36" fill="var(--panel)" fill-opacity="0.46" opacity="0.3"/>
  <path d="M 542 690 Q 746 678 928 690" fill="none" stroke="var(--primary-text)" stroke-width="14" stroke-linecap="round" opacity="0.10"/>
  <path d="M 1378 690 Q 1174 678 992 690" fill="none" stroke="var(--primary-text)" stroke-width="14" stroke-linecap="round" opacity="0.10"/>
  <path d="M 564 690 Q 752 680 928 690" fill="none" stroke="var(--muted-text)" stroke-width="7" stroke-linecap="round" opacity="0.86"/>
  <path d="M 1356 690 Q 1168 680 992 690" fill="none" stroke="var(--muted-text)" stroke-width="7" stroke-linecap="round" opacity="0.86"/>
  <circle cx="960" cy="690" r="18" fill="var(--panel)" fill-opacity="0.94" stroke="var(--primary-text)" stroke-width="3"/>
  <path d="M 818 336 L 530 360" fill="none" stroke="var(--muted-text)" stroke-width="3" stroke-linecap="round" opacity="0.72"/>
  <circle cx="530" cy="360" r="6" fill="var(--accent-1)"/>
  <g transform="translate(410, 390)" filter="url(#svg4e9abdbb-soft-shadow)">
    <path d="M 62 0 L 96 -30 L 146 -30 Q 156 -30 162 -18 L 174 0 Z" fill="var(--panel)" fill-opacity="0.95" stroke="var(--accent-1)" stroke-width="3"/>
    <rect id="ITEM_1_BG" x="-228" y="0" width="456" height="348" rx="24" fill="var(--panel)" fill-opacity="0.96" stroke="var(--accent-1)" stroke-width="3"/>
    <rect x="-184" y="14" width="344" height="8" rx="4" fill="var(--accent-1)" fill-opacity="0.42"/>
    <path d="M 76 28 L 184 28 L 160 322 L 84 322 Z" fill="var(--accent-1)" fill-opacity="0.07"/>
    <circle cx="0" cy="80" r="61" fill="url(#svg4e9abdbb-universal-icon-aura)" opacity="0.82"/>
    <circle id="ITEM_1_PAD" cx="0" cy="80" r="44" fill="var(--icon-pad-bg)" stroke="var(--primary-text)" opacity="0.92" fill-opacity="0.9" stroke-width="2"/>
    <circle id="ITEM_1_PAD_INNER" cx="0" cy="80" r="34.32" fill="var(--accent-8)" fill-opacity="0.22"/>
    <circle cx="0" cy="80" r="34" fill="none" stroke="var(--accent-1)" stroke-width="2.5" stroke-dasharray="5 4" opacity="0.82"/>
    <g id="ITEM_1_ICON" transform="translate(-33, 46)" data-icon-size="66" stroke-dasharray="5 4">
      <g transform="translate(-7.6755555555555555,-7.6755555555555555) scale(3.3896296296296295)" vector-effect="non-scaling-stroke" stroke-width="2.50" stroke-linecap="round" stroke-linejoin="round" stroke-opacity="1.0">
        <path d="M21 17.85h-18c0 -4.05 1.421 -4.05 3.79 -4.05c5.21 0 1.21 -4.59 1.21 -6.8a4 4 0 1 1 8 0c0 2.21 -4 6.8 1.21 6.8c2.369 0 3.79 0 3.79 4.05z" vector-effect="non-scaling-stroke" fill="none" stroke="#f1f5f9"/>
        <path d="M5 21h14" vector-effect="non-scaling-stroke" fill="none" stroke="#f1f5f9"/>
      </g>
    </g>
    <text id="ITEM_1_HEAD" x="0.0" y="138.0" text-anchor="middle" font-size="40" font-weight="800" fill="var(--primary-text)" data-bg-id="ITEM_1_BG" data-max-lines="3" data-min-font-size="14" fill-opacity="1.0" style="font-size: 30px; font-family: Inter, Segoe UI, Kalam, Roboto, Helvetica, Arial, sans-serif; font-weight: 700; letter-spacing:-0.4px;" data-final-font-size="30">
      <tspan x="0.0" dy="47.01px">Official Markings</tspan>
    </text>
    <rect id="ITEM_1_HEAD_FRAME" x="-194" y="138" width="388" height="68" fill="none"/>
    <text id="ITEM_1_BODY" x="0.0" y="202.0" text-anchor="middle" font-size="24" fill="var(--primary-text)" data-bg-id="ITEM_1_BG" style="font-size: 26px; font-family: Inter, Segoe UI, Kalam, Roboto, Helvetica, Arial, sans-serif; font-weight: 400;" data-final-font-size="26">
      <tspan x="0.0" dy="36.15px">Classification language grants</tspan>
      <tspan x="0.0" dy="29.90px">documents immediate</tspan>
      <tspan x="0.0" dy="29.90px">perceived authority</tspan>
    </text>
    <rect id="ITEM_1_BODY_FRAME" x="-214" y="202" width="428" height="146" fill="none"/>
  </g>
  <path d="M 960 356 L 960 342" fill="none" stroke="var(--muted-text)" stroke-width="3" stroke-linecap="round" opacity="0.72"/>
  <circle cx="960" cy="342" r="6" fill="var(--accent-2)"/>
  <g transform="translate(960, 372)" filter="url(#svg4e9abdbb-soft-shadow)">
    <path d="M -46 0 L -16 -30 L 16 -30 L 46 0 Z" fill="var(--panel)" fill-opacity="0.95" stroke="var(--accent-2)" stroke-width="3"/>
    <rect id="ITEM_2_BG" x="-228" y="0" width="456" height="348" rx="24" fill="var(--panel)" fill-opacity="0.96" stroke="var(--accent-2)" stroke-width="3"/>
    <rect x="-160" y="14" width="320" height="8" rx="4" fill="var(--accent-2)" fill-opacity="0.42"/>
    <path d="M -70 28 L 70 28 L 104 320 L -104 320 Z" fill="var(--accent-2)" fill-opacity="0.05"/>
    <circle cx="0" cy="80" r="61" fill="url(#svg4e9abdbb-universal-icon-aura)" opacity="0.82"/>
    <circle id="ITEM_2_PAD" cx="0" cy="80" r="44" fill="var(--icon-pad-bg)" stroke="var(--primary-text)" opacity="0.92" fill-opacity="0.9" stroke-width="2"/>
    <circle id="ITEM_2_PAD_INNER" cx="0" cy="80" r="34.32" fill="var(--accent-9)" fill-opacity="0.22"/>
    <circle cx="0" cy="80" r="34" fill="none" stroke="var(--accent-2)" stroke-width="2.5" stroke-dasharray="5 4" opacity="0.82"/>
    <g id="ITEM_2_ICON" transform="translate(-33, 46)" data-icon-size="66" stroke-dasharray="5 4">
      <g transform="translate(-6.222857142857146,-6.222857142857143) scale(2.4514285714285715)">
        <path d="M8 26H27V4C27 2.89543 26.1046 2 25 2H8V26Z" fill="#533566"/>
        <path d="M6 27H27V29H6V27Z" fill="#D3D3D3"/>
        <path d="M12.5 7C12.5 6.44772 12.9477 6 13.5 6H18.5C19.0523 6 19.5 6.44772 19.5 7V9C19.5 9.55228 19.0523 10 18.5 10H13.5C12.9477 10 12.5 9.55228 12.5 9V7Z" fill="white"/>
        <path d="M6.5 2C5.67157 2 5 2.67157 5 3.5V28H6C6 27.4477 6.44772 27 7 27H8V2H6.5Z" fill="#321B41"/>
        <path d="M6.5 26C5.67157 26 5 26.6716 5 27.5V28.5C5 29.3284 5.67157 30 6.5 30H25.5C26.1531 30 26.7087 29.5826 26.9146 29H7C6.44772 29 6 28.5523 6 28C6 27.4477 6.44772 27 7 27H27V26H6.5Z" fill="#6B438B"/>
        <path d="M23 2H24V30H23V2Z" fill="#6B438B"/>
      </g>
    </g>
    <text id="ITEM_2_HEAD" x="0.0" y="138.0" text-anchor="middle" font-size="40" font-weight="800" fill="var(--primary-text)" data-bg-id="ITEM_2_BG" data-max-lines="3" data-min-font-size="14" fill-opacity="1.0" style="font-size: 30px; font-family: Inter, Segoe UI, Kalam, Roboto, Helvetica, Arial, sans-serif; font-weight: 700; letter-spacing:-0.4px;" data-final-font-size="30">
      <tspan x="0.0" dy="47.01px">Working Assumptions</tspan>
    </text>
    <rect id="ITEM_2_HEAD_FRAME" x="-194" y="138" width="388" height="68" fill="none"/>
    <text id="ITEM_2_BODY" x="0.0" y="202.0" text-anchor="middle" font-size="24" fill="var(--primary-text)" data-bg-id="ITEM_2_BG" style="font-size: 26px; font-family: Inter, Segoe UI, Kalam, Roboto, Helvetica, Arial, sans-serif; font-weight: 400;" data-final-font-size="26">
      <tspan x="0.0" dy="42.13px">Proposals document intelligence</tspan>
      <tspan x="0.0" dy="29.90px">leads and unverified testimonies</tspan>
    </text>
    <rect id="ITEM_2_BODY_FRAME" x="-214" y="202" width="428" height="146" fill="none"/>
  </g>
  <path d="M 1102 336 L 1390 360" fill="none" stroke="var(--muted-text)" stroke-width="3" stroke-linecap="round" opacity="0.72"/>
  <circle cx="1390" cy="360" r="6" fill="var(--accent-3)"/>
  <g transform="translate(1510, 390)" filter="url(#svg4e9abdbb-soft-shadow)">
    <path d="M -62 0 L -96 -30 L -146 -30 Q -156 -30 -162 -18 L -174 0 Z" fill="var(--panel)" fill-opacity="0.95" stroke="var(--accent-3)" stroke-width="3"/>
    <rect id="ITEM_3_BG" x="-228" y="0" width="456" height="348" rx="24" fill="var(--panel)" fill-opacity="0.96" stroke="var(--accent-3)" stroke-width="3"/>
    <rect x="-160" y="14" width="344" height="8" rx="4" fill="var(--accent-3)" fill-opacity="0.42"/>
    <path d="M -76 28 L -184 28 L -160 322 L -84 322 Z" fill="var(--accent-3)" fill-opacity="0.07"/>
    <circle cx="0" cy="80" r="61" fill="url(#svg4e9abdbb-universal-icon-aura)" opacity="0.82"/>
    <circle id="ITEM_3_PAD" cx="0" cy="80" r="44" fill="var(--icon-pad-bg)" stroke="var(--primary-text)" opacity="0.92" fill-opacity="0.9" stroke-width="2"/>
    <circle id="ITEM_3_PAD_INNER" cx="0" cy="80" r="34.32" fill="var(--accent-10)" fill-opacity="0.22"/>
    <circle cx="0" cy="80" r="34" fill="none" stroke="var(--accent-3)" stroke-width="2.5" stroke-dasharray="5 4" opacity="0.82"/>
    <g id="ITEM_3_ICON" transform="translate(-33, 46)" data-icon-size="66" stroke-dasharray="5 4">
      <g transform="translate(-3.5890909090909093,-3.872727272727272) scale(0.14181818181818182)" vector-effect="non-scaling-stroke" fill="#f1f5f9" fill-opacity="1.0" stroke="none">
        <path fill="#f1f5f9" d="M149.9 27.2L34.25 56.74v76.76L157.8 93.85l46.7-44.67zm132.8 57c-7.4.18-10.1 1.88.9 7.13C346.9 121.6 441.7 206.8 391.3 216.9C232.2 249 130.4 292.3 48.51 390.8C25.42 418.6 18 494.8 18 494.8h432.6s-139-21.1-147.8-75.7c-14.9-92.2 194.5-102.7 196.5-199.9c.9-43.2-88.3-124.99-184.4-132.52c-5.6-.44-22.7-2.71-32.2-2.48m-163.5 40.9l-32.69 10.5v122.2l35.99-10z" vector-effect="non-scaling-stroke" stroke="none"/>
      </g>
    </g>
    <text id="ITEM_3_HEAD" x="0.0" y="138.0" text-anchor="middle" font-size="40" font-weight="800" fill="var(--accent-10)" data-bg-id="ITEM_3_BG" data-max-lines="3" data-min-font-size="14" fill-opacity="1.0" style="font-size: 30px; font-family: Inter, Segoe UI, Kalam, Roboto, Helvetica, Arial, sans-serif; font-weight: 700; letter-spacing:-0.4px;" data-final-font-size="30">
      <tspan x="0.0" dy="47.01px">Planning Scenarios</tspan>
    </text>
    <rect id="ITEM_3_HEAD_FRAME" x="-194" y="138" width="388" height="68" fill="none"/>
    <text id="ITEM_3_BODY" x="0.0" y="202.0" text-anchor="middle" font-size="24" fill="var(--primary-text)" data-bg-id="ITEM_3_BG" style="font-size: 26px; font-family: Inter, Segoe UI, Kalam, Roboto, Helvetica, Arial, sans-serif; font-weight: 400;" data-final-font-size="26">
      <tspan x="0.0" dy="42.13px">Documents outline hypothetical</tspan>
      <tspan x="0.0" dy="29.90px">frameworks for future investigations</tspan>
    </text>
    <rect id="ITEM_3_BODY_FRAME" x="-214" y="202" width="428" height="146" fill="none"/>
  </g>
  <path d="M 930 690 L 810 696" fill="none" stroke="var(--muted-text)" stroke-width="3" stroke-linecap="round" opacity="0.72"/>
  <circle cx="810" cy="696" r="6" fill="var(--accent-4)"/>
  <g transform="translate(690, 700)" filter="url(#svg4e9abdbb-soft-shadow)">
    <path d="M 62 0 L 96 -30 L 146 -30 Q 156 -30 162 -18 L 174 0 Z" fill="var(--panel)" fill-opacity="0.95" stroke="var(--accent-4)" stroke-width="3"/>
    <rect id="ITEM_4_BG" x="-228" y="0" width="456" height="348" rx="24" fill="var(--panel)" fill-opacity="0.96" stroke="var(--accent-4)" stroke-width="3"/>
    <rect x="-184" y="14" width="344" height="8" rx="4" fill="var(--accent-4)" fill-opacity="0.42"/>
    <path d="M 76 28 L 184 28 L 160 322 L 84 322 Z" fill="var(--accent-4)" fill-opacity="0.07"/>
    <circle cx="0" cy="80" r="61" fill="url(#svg4e9abdbb-universal-icon-aura)" opacity="0.82"/>
    <circle id="ITEM_4_PAD" cx="0" cy="80" r="44" fill="var(--icon-pad-bg)" stroke="var(--primary-text)" opacity="0.92" fill-opacity="0.9" stroke-width="2"/>
    <circle id="ITEM_4_PAD_INNER" cx="0" cy="80" r="34.32" fill="var(--accent-1)" fill-opacity="0.22"/>
    <circle cx="0" cy="80" r="34" fill="none" stroke="var(--accent-4)" stroke-width="2.5" stroke-dasharray="5 4" opacity="0.82"/>
    <g id="ITEM_4_ICON" transform="translate(-33, 46)" data-icon-size="66" stroke-dasharray="5 4">
      <g transform="translate(-4.228474576271187,-4.228474576271187) scale(3.102372881355932)" vector-effect="non-scaling-stroke" stroke-width="2.50" stroke-linecap="round" stroke-linejoin="round" stroke-opacity="1.0">
        <path d="M3.85 8.62a4 4 0 0 1 4.78-4.77 4 4 0 0 1 6.74 0 4 4 0 0 1 4.78 4.78 4 4 0 0 1 0 6.74 4 4 0 0 1-4.77 4.78 4 4 0 0 1-6.75 0 4 4 0 0 1-4.78-4.77 4 4 0 0 1 0-6.76Z" vector-effect="non-scaling-stroke" fill="none" stroke="#f1f5f9"/>
      </g>
    </g>
    <text id="ITEM_4_HEAD" x="0.0" y="138.0" text-anchor="middle" font-size="40" font-weight="800" fill="var(--accent-1)" data-bg-id="ITEM_4_BG" data-max-lines="3" data-min-font-size="14" fill-opacity="1.0" style="font-size: 30px; font-family: Inter, Segoe UI, Kalam, Roboto, Helvetica, Arial, sans-serif; font-weight: 700; letter-spacing:-0.4px;" data-final-font-size="30">
      <tspan x="0.0" dy="47.01px">Request for Authority</tspan>
    </text>
    <rect id="ITEM_4_HEAD_FRAME" x="-194" y="138" width="388" height="68" fill="none"/>
    <text id="ITEM_4_BODY" x="0.0" y="202.0" text-anchor="middle" font-size="24" fill="var(--primary-text)" data-bg-id="ITEM_4_BG" style="font-size: 26px; font-family: Inter, Segoe UI, Kalam, Roboto, Helvetica, Arial, sans-serif; font-weight: 400;" data-final-font-size="26">
      <tspan x="0.0" dy="42.13px">Bureaucratic processes initiate</tspan>
      <tspan x="0.0" dy="29.90px">requests for funding and oversight</tspan>
    </text>
    <rect id="ITEM_4_BODY_FRAME" x="-214" y="202" width="428" height="146" fill="none"/>
  </g>
  <path d="M 990 690 L 1110 696" fill="none" stroke="var(--muted-text)" stroke-width="3" stroke-linecap="round" opacity="0.72"/>
  <circle cx="1110" cy="696" r="6" fill="var(--accent-5)"/>
  <g transform="translate(1230, 700)" filter="url(#svg4e9abdbb-soft-shadow)">
    <path d="M -62 0 L -96 -30 L -146 -30 Q -156 -30 -162 -18 L -174 0 Z" fill="var(--panel)" fill-opacity="0.95" stroke="var(--accent-5)" stroke-width="3"/>
    <rect id="ITEM_5_BG" x="-228" y="0" width="456" height="348" rx="24" fill="var(--panel)" fill-opacity="0.96" stroke="var(--accent-5)" stroke-width="3"/>
    <rect x="-160" y="14" width="344" height="8" rx="4" fill="var(--accent-5)" fill-opacity="0.42"/>
    <path d="M -76 28 L -184 28 L -160 322 L -84 322 Z" fill="var(--accent-5)" fill-opacity="0.07"/>
    <circle cx="0" cy="80" r="61" fill="url(#svg4e9abdbb-universal-icon-aura)" opacity="0.82"/>
    <circle id="ITEM_5_PAD" cx="0" cy="80" r="44" fill="var(--icon-pad-bg)" stroke="var(--primary-text)" opacity="0.92" fill-opacity="0.9" stroke-width="2"/>
    <circle id="ITEM_5_PAD_INNER" cx="0" cy="80" r="34.32" fill="var(--accent-2)" fill-opacity="0.22"/>
    <circle cx="0" cy="80" r="34" fill="none" stroke="var(--accent-5)" stroke-width="2.5" stroke-dasharray="5 4" opacity="0.82"/>
    <g id="ITEM_5_ICON" transform="translate(-33, 46)" data-icon-size="66" stroke-dasharray="5 4">
      <g transform="translate(-4.2284745762711875,-3.9376271186440697) scale(0.14542372881355933)" vector-effect="non-scaling-stroke" fill="#f1f5f9" fill-opacity="1.0" stroke="none">
        <path fill="#f1f5f9" d="M269.594 138.188c-7.327.018-14.304 1.695-20.47 4.718c-12.33 6.046-21.537 16.877-26.874 29.344s-6.884 26.816-2.906 40.375s13.864 26.06 29.594 33.53l8.03-16.874c-11.386-5.406-17.107-13.144-19.687-21.936c-2.578-8.792-1.63-18.9 2.157-27.75c3.79-8.85 10.305-16.18 17.907-19.906c7.602-3.728 16.19-4.464 26.844.593l.25.126l.28.125l128.407 51.595c-2.868 3.738-5.47 7.785-7.813 12.063c-4.422 8.076-7.89 17.01-10.125 26.375c-11.192.072-23.21 2.372-34.843 9.406c-3.506-6.976-8.417-12.93-14.5-17.44c-8.036-5.955-17.907-9.28-28.594-9.75c-6.412-.28-13.118.456-19.906 2.314c-19.537 5.347-36.632 18.23-48.25 34.78l-140.438-68c-.158-.087-.31-.163-.47-.25c-9.61-5.25-19.48-7.61-28.842-7.56a53.2 53.2 0 0 0-16.375 2.655c-13.765 4.525-24.973 14.166-32.126 26.06c-7.153 11.896-10.38 26.294-7.344 40.407c3.035 14.114 12.633 27.52 28.813 36.532l9.093-16.345c-12.24-6.818-17.72-15.27-19.625-24.125c-1.903-8.854.075-18.547 5.064-26.844c4.99-8.297 12.877-14.958 21.937-17.937c9.062-2.98 19.295-2.647 30.782 3.75l.25.124l.25.094l139.907 67.78c-4.3 10.024-6.72 20.765-6.72 31.626c0 18.525 7.674 34.47 20.53 44c12.858 9.53 30.4 12.39 48.5 7.437c36.206-9.907 64.126-45.698 64.126-82.75q.001-4.01-.47-7.842c9.038-7.025 17.4-9.228 26.564-9.47a98 98 0 0 0-.156 5.094c0 17.794 4.827 32.91 14.375 42.938c9.546 10.03 24.624 13.654 38.717 8.188c14.094-5.467 25.31-17.586 33.375-32.313s12.97-32.332 12.97-50.125s-4.86-32.908-14.407-42.938c-5.967-6.268-14.09-10.042-22.78-10.656c-5.216-.368-10.623.42-15.908 2.47c-3.887 1.507-7.555 3.532-11 5.968L292.22 143.406c-.178-.084-.356-.137-.533-.22c-7.43-3.435-14.937-5.017-22.093-5zm183.344 69.468c4.232-.034 7.58 1.82 10.906 5.313c3.47 3.643 6.512 9.688 8.094 17.718c-4.87-3.297-10.882-4.063-17.407-1.532c-16.185 6.28-29.31 30.25-29.31 53.53c0 11.812 3.402 21.147 8.842 26.69c-5.652 1.042-9.74-.787-13.78-5.032c-5.067-5.322-9.25-15.75-9.25-30.03c0-14.284 4.106-29.197 10.656-41.158c6.55-11.96 15.542-20.69 23.75-23.875c2.05-.795 3.91-1.278 5.625-1.5c.642-.082 1.27-.12 1.875-.124zm-137.72 43.656c7.75.073 14.323 2.413 19.5 6.25c7.414 5.495 12.4 14.35 12.938 26.72c-7.126-10.86-20.657-15.814-36.187-11.563c-22.94 6.277-41.533 30.218-41.533 53.5c0 11.816 4.782 21.207 12.5 26.75c-6.89-.417-12.802-2.653-17.53-6.158c-7.856-5.82-12.97-15.418-12.97-28.968c0-27.1 23.337-57.328 50.344-64.72c3.377-.923 6.597-1.474 9.658-1.686a42 42 0 0 1 1.718-.094c.527-.016 1.046-.036 1.563-.03z" vector-effect="non-scaling-stroke" stroke="none"/>
      </g>
    </g>
    <text id="ITEM_5_HEAD" x="0.0" y="138.0" text-anchor="middle" font-size="40" font-weight="800" fill="var(--primary-text)" data-bg-id="ITEM_5_BG" data-max-lines="3" data-min-font-size="14" fill-opacity="1.0" style="font-size: 30px; font-family: Inter, Segoe UI, Kalam, Roboto, Helvetica, Arial, sans-serif; font-weight: 700; letter-spacing:-0.4px;" data-final-font-size="30">
      <tspan x="0.0" dy="47.01px">Misinterpreted Evidence</tspan>
    </text>
    <rect id="ITEM_5_HEAD_FRAME" x="-194" y="138" width="388" height="68" fill="none"/>
    <text id="ITEM_5_BODY" x="0.0" y="202.0" text-anchor="middle" font-size="24" fill="var(--primary-text)" data-bg-id="ITEM_5_BG" style="font-size: 26px; font-family: Inter, Segoe UI, Kalam, Roboto, Helvetica, Arial, sans-serif; font-weight: 400;" data-final-font-size="26">
      <tspan x="0.0" dy="42.13px">Readers mistake proposal language</tspan>
      <tspan x="0.0" dy="29.90px">for proof of physical reality</tspan>
    </text>
    <rect id="ITEM_5_BODY_FRAME" x="-214" y="202" width="428" height="146" fill="none"/>
  </g>
</svg>
