<?xml version='1.0' encoding='utf-8'?>
<svg xmlns="http://www.w3.org/2000/svg" width="1920" height="1080" viewBox="0 0 1920 1080" data-theme="light">
  <style>
        @font-face {
            font-family: 'Inter';
            src: url('assets/fonts/Inter-Regular.ttf') format('truetype');
            font-weight: 400;
            font-style: normal;
            font-display: swap;
        }
        @font-face {
            font-family: 'Inter';
            src: url('assets/fonts/Inter-Bold.ttf') format('truetype');
            font-weight: 600;
            font-style: normal;
            font-display: swap;
        }
        @font-face {
            font-family: 'Inter';
            src: url('assets/fonts/Inter-Bold.ttf') format('truetype');
            font-weight: 800;
            font-style: normal;
            font-display: swap;
        }
        
:root {
    --background: #f8fafc;
    --panel: #ffffff;
    --primary-text: #0f172a;
    --muted-text: #64748b;
    --inverse-text: #ffffff;
    --border: #e2e8f0;
    --shadow-color: #000000;
    --icon-pad-bg: #1e293b;
    --art-glow: #0891b2;
    --art-glow-opacity: 0.10;
    --art-sheen: #ffffff;
    --art-sheen-opacity: 0.34;
    --art-shadow: #0f172a;
    --art-shadow-opacity: 0.14;
    --art-muted-line: #94a3b8;
    --art-panel-tint: #f1f5f9;
    --font-family: 'Inter', 'Segoe UI', 'Kalam', Roboto, Helvetica, Arial, sans-serif;
    --radius-xl: 16px;
    --font-family-headline: 'Inter', 'Segoe UI', 'Kalam', Roboto, Helvetica, Arial, sans-serif;
    --font-family-body: 'Inter', 'Segoe UI', 'Kalam', Roboto, Helvetica, Arial, sans-serif;
    --font-heading: 'Inter', 'Segoe UI', 'Kalam', Roboto, Helvetica, Arial, sans-serif;
    --font-body: 'Inter', 'Segoe UI', 'Kalam', Roboto, Helvetica, Arial, sans-serif;
    --font-size-h1: 56px;
    --font-size-h2: 40px;
    --font-size-h3: 28px;
    --font-size-body: 24px;
    --font-size-caption: 18px;
    --secondary-text: var(--muted-text);
    --panel-border: var(--border);
    --font-weight-normal: 400;
    --font-weight-medium: 500;
    --font-weight-semibold: 600;
    --font-weight-bold: 700;
    --spacing-gutter-pct: 0.07;
    --spacing-top-pct: 0.15;
    --spacing-bottom-pct: 0.07;
    --spacing-title-y-pct: 0.055;
    --accent-1: #d97706;
    --accent-2: #ea580c;
    --accent-3: #dc2626;
    --accent-4: #65a30d;
    --accent-5: #16a34a;
    --accent-6: #92400e;
}
:root[data-theme="dark"] {
    --background: #0f172a;
    --panel: #1e293b;
    --primary-text: #f1f5f9;
    --muted-text: #94a3b8;
    --inverse-text: #0f172a;
    --border: #334155;
    --shadow-color: #000000;
    --icon-pad-bg: #1e293b;
    --art-glow: #7dd3fc;
    --art-glow-opacity: 0.18;
    --art-sheen: #ffffff;
    --art-sheen-opacity: 0.18;
    --art-shadow: #000000;
    --art-shadow-opacity: 0.28;
    --art-muted-line: #64748b;
    --art-panel-tint: #1e293b;
    --accent-1: #fbbf24;
    --accent-2: #fb923c;
    --accent-3: #f87171;
    --accent-4: #a3e635;
    --accent-5: #4ade80;
    --accent-6: #d4a574;
}
:root[data-theme="light"] {
    --background: #f8fafc;
    --panel: #ffffff;
    --primary-text: #0f172a;
    --muted-text: #64748b;
    --inverse-text: #ffffff;
    --border: #e2e8f0;
    --shadow-color: #000000;
    --icon-pad-bg: #1e293b;
    --art-glow: #0891b2;
    --art-glow-opacity: 0.10;
    --art-sheen: #ffffff;
    --art-sheen-opacity: 0.34;
    --art-shadow: #0f172a;
    --art-shadow-opacity: 0.14;
    --art-muted-line: #94a3b8;
    --art-panel-tint: #f1f5f9;
    --accent-1: #d97706;
    --accent-2: #ea580c;
    --accent-3: #dc2626;
    --accent-4: #65a30d;
    --accent-5: #16a34a;
    --accent-6: #92400e;
}</style>
  <rect x="0" y="0" width="1.92E+3" height="1.08E+3" fill="#252a34" stroke="none" id="programmatic_background"/>
  <line id="HEADER_DECOR" x1="960.0" x2="1080.0" y1="135.0" y2="135.0" stroke="var(--accent-1)" stroke-width="6" stroke-linecap="round"/>
  <defs>
    <pattern id="svg821af4e4-napkin-hatch" patternUnits="userSpaceOnUse" width="12" height="12">
      <path d="M -3 12 L 12 -3 M 0 15 L 15 0" fill="none" stroke="var(--primary-text)" stroke-width="1" stroke-opacity="0.05"/>
    </pattern>
    <radialGradient id="svg821af4e4-universal-edge-vignette" cx="50%" cy="50%" r="72%">
      <stop offset="0%" stop-color="var(--background)" stop-opacity="0"/>
      <stop offset="72%" stop-color="var(--background)" stop-opacity="0.12"/>
      <stop offset="100%" stop-color="var(--primary-text)" stop-opacity="0.08"/>
    </radialGradient>
    <linearGradient id="svg821af4e4-universal-surface-sheen" x1="0%" y1="0%" x2="100%" y2="100%">
      <stop offset="0%" stop-color="var(--art-sheen)" stop-opacity="var(--art-sheen-opacity)"/>
      <stop offset="46%" stop-color="var(--art-sheen)" stop-opacity="0.035"/>
      <stop offset="100%" stop-color="var(--art-panel-tint)" stop-opacity="0.14"/>
    </linearGradient>
    <radialGradient id="svg821af4e4-universal-icon-aura" cx="50%" cy="42%" r="64%">
      <stop offset="0%" stop-color="var(--art-glow)" stop-opacity="var(--art-glow-opacity)"/>
      <stop offset="100%" stop-color="var(--background)" stop-opacity="0"/>
    </radialGradient>
    <filter id="svg821af4e4-text-glow" x="-20%" y="-20%" width="140%" height="140%">
      <feDropShadow dx="0" dy="0" stdDeviation="2" flood-color="#000000" flood-opacity="0.4"/>
    </filter>
    <filter id="svg821af4e4-shadow" x="-30%" y="-30%" width="160%" height="160%">
      <feDropShadow dx="0" dy="2" stdDeviation="3" flood-color="#000000" flood-opacity="0.08"/>
      <feDropShadow dx="0" dy="6" stdDeviation="10" flood-color="#000000" flood-opacity="0.12"/>
    </filter>
    <marker id="svg821af4e4-arrowhead" markerWidth="10" markerHeight="7" refX="9" refY="3.5" orient="auto" markerUnits="strokeWidth">
      <polygon points="0 0, 10 3.5, 0 7" fill="var(--muted-text)" opacity="0.6"/>
    </marker>
  </defs>
  <rect width="100%" height="100%" fill="var(--background)" id="CANVAS_BG"/>
  <rect width="100%" height="100%" fill="url(#svg821af4e4-napkin-hatch)"/>
  <rect id="UNIVERSAL_EDGE_VIGNETTE" width="100%" height="100%" fill="url(#svg821af4e4-universal-edge-vignette)" opacity="0.62"/>
  <text id="TITLE" x="960.0" y="59" text-anchor="middle" font-weight="700" font-size="63" fill="#0f172a" style="font-size: 60px; font-family: Inter, Segoe UI, Kalam, Roboto, Helvetica, Arial, sans-serif; font-weight: 700; letter-spacing:-1.2px;" data-final-font-size="60">
    <tspan x="960.0" dy="68.00px">Eminent Domain Debate Points</tspan>
  </text>
  <rect id="TITLE_FRAME" x="134" y="59" width="1652" height="103" fill="none"/>
  <g id="DIAGRAM_SCALER" transform="translate(50.3, 35.0) scale(0.95)">
    <line x1="960" y1="225" x2="960" y2="1020" stroke="var(--border)" stroke-width="3" stroke-linecap="round"/>
    <g transform="translate(960.0, 300.0)">
      <line x1="0" y1="0" x2="-120" y2="0" stroke="var(--muted-text)" stroke-width="2"/>
      <g transform="translate(-500.0, -85.0)">
        <rect id="ITEM_1_BG" x="-3" y="0" width="380" height="170" rx="18" fill="var(--panel)" stroke="var(--accent-1)" stroke-width="2"/>
        <text id="ITEM_1_HEAD" text-anchor="end" font-weight="bold" font-size="30" fill="var(--primary-text)" x="230.0" y="30.0" data-bg-id="ITEM_1_BG" fill-opacity="1.0" style="font-size: 30px; font-family: Inter, Segoe UI, Kalam, Roboto, Helvetica, Arial, sans-serif; font-weight: 700; letter-spacing:-0.4px;" data-final-font-size="30">
          <tspan x="230.0" dy="32.25px">Advocate View</tspan>
        </text>
        <rect id="ITEM_1_HEAD_FRAME" x="0" y="30" width="230" height="48" fill="none"/>
        <text id="ITEM_1_BODY" text-anchor="end" font-size="18" fill="var(--primary-text)" x="230.0" y="84.0" data-bg-id="ITEM_1_BG" style="font-size: 23px; font-family: Inter, Segoe UI, Kalam, Roboto, Helvetica, Arial, sans-serif; font-weight: 400;" data-final-font-size="23">
          <tspan x="230.0" dy="18.53px">Necessary to reach</tspan>
          <tspan x="230.0" dy="26.45px">materials held by</tspan>
          <tspan x="230.0" dy="26.45px">private entities</tspan>
        </text>
        <rect id="ITEM_1_BODY_FRAME" x="0" y="84" width="230" height="80" fill="none"/>
        <circle id="ITEM_1_PAD" cx="330" cy="85.0" r="39" fill="var(--icon-pad-bg)" stroke="var(--primary-text)" opacity="0.9" fill-opacity="0.9" stroke-width="2"/>
        <circle id="ITEM_1_PAD_INNER" cx="330" cy="85.0" r="30.42" fill="var(--accent-5)" fill-opacity="0.22"/>
        <circle cx="330" cy="85.0" r="31.2" fill="none" stroke="var(--accent-1)" stroke-width="3" stroke-dasharray="6 4"/>
        <g id="ITEM_1_ICON" transform="translate(300, 55.0)" data-icon-size="60" stroke-dasharray="6 4">
          <g transform="translate(-2.9979661016949173,-1.7089830508474613) scale(2.7498305084745764)" vector-effect="non-scaling-stroke" stroke-width="2.43" stroke-linecap="round" stroke-linejoin="round" stroke-opacity="1.0">
            <path d="M18 21V10a1 1 0 0 0-1-1H7a1 1 0 0 0-1 1v11" vector-effect="non-scaling-stroke" fill="none" stroke="#f1f5f9"/>
            <path d="M22 19a2 2 0 0 1-2 2H4a2 2 0 0 1-2-2V8a2 2 0 0 1 1.132-1.803l7.95-3.974a2 2 0 0 1 1.837 0l7.948 3.974A2 2 0 0 1 22 8z" vector-effect="non-scaling-stroke" fill="none" stroke="#f1f5f9"/>
            <path d="M6 13h12" vector-effect="non-scaling-stroke" fill="none" stroke="#f1f5f9"/>
            <path d="M6 17h12" vector-effect="non-scaling-stroke" fill="none" stroke="#f1f5f9"/>
          </g>
        </g>
      </g>
      <line x1="0" y1="0" x2="120" y2="0" stroke="var(--muted-text)" stroke-width="2"/>
      <g transform="translate(140.0, -85.0)">
        <rect id="ITEM_2_BG" x="0" y="0" width="380" height="170" rx="18" fill="var(--panel)" stroke="var(--accent-2)" stroke-width="2"/>
        <text id="ITEM_2_HEAD" text-anchor="start" font-weight="bold" font-size="30" fill="var(--accent-6)" x="150.0" y="38.0" data-bg-id="ITEM_2_BG" fill-opacity="1.0" style="font-size: 30px; font-family: Inter, Segoe UI, Kalam, Roboto, Helvetica, Arial, sans-serif; font-weight: 700; letter-spacing:-0.4px;" data-final-font-size="30">
          <tspan x="150.0" dy="30.75px">Critic View</tspan>
        </text>
        <rect id="ITEM_2_HEAD_FRAME" x="150" y="38" width="180" height="45" fill="none"/>
        <text id="ITEM_2_BODY" text-anchor="start" font-size="18" fill="var(--primary-text)" x="150.0" y="84.0" data-bg-id="ITEM_2_BG" style="font-size: 24px; font-family: Inter, Segoe UI, Kalam, Roboto, Helvetica, Arial, sans-serif; font-weight: 400;" data-final-font-size="24">
          <tspan x="150.0" dy="21.12px">Risks to private</tspan>
          <tspan x="150.0" dy="27.60px">property and</tspan>
          <tspan x="150.0" dy="27.60px">commercial</tspan>
          <tspan x="150.0" dy="27.60px">interests</tspan>
        </text>
        <rect id="ITEM_2_BODY_FRAME" x="150" y="84" width="190" height="120" fill="none"/>
        <circle id="ITEM_2_PAD" cx="50" cy="85.0" r="39" fill="var(--icon-pad-bg)" stroke="var(--primary-text)" opacity="0.9" fill-opacity="0.9" stroke-width="2"/>
        <circle id="ITEM_2_PAD_INNER" cx="50" cy="85.0" r="30.42" fill="var(--accent-6)" fill-opacity="0.22"/>
        <circle cx="50" cy="85.0" r="31.2" fill="none" stroke="var(--accent-1)" stroke-width="3" stroke-dasharray="6 4"/>
        <g id="ITEM_2_ICON" transform="translate(20, 55.0)" data-icon-size="60" stroke-dasharray="6 4">
          <g transform="translate(-2.9979661016949173,-2.9979661016949173) scale(2.7498305084745764)" vector-effect="non-scaling-stroke" stroke-width="2.43" stroke-linecap="round" stroke-linejoin="round" stroke-opacity="1.0">
            <path d="M4 3 2 5v15c0 .6.4 1 1 1h2c.6 0 1-.4 1-1V5Z" vector-effect="non-scaling-stroke" fill="none" stroke="#f1f5f9"/>
            <path d="M6 8h4" vector-effect="non-scaling-stroke" fill="none" stroke="#f1f5f9"/>
            <path d="M6 18h4" vector-effect="non-scaling-stroke" fill="none" stroke="#f1f5f9"/>
            <path d="m12 3-2 2v15c0 .6.4 1 1 1h2c.6 0 1-.4 1-1V5Z" vector-effect="non-scaling-stroke" fill="none" stroke="#f1f5f9"/>
            <path d="M14 8h4" vector-effect="non-scaling-stroke" fill="none" stroke="#f1f5f9"/>
            <path d="M14 18h4" vector-effect="non-scaling-stroke" fill="none" stroke="#f1f5f9"/>
            <path d="m20 3-2 2v15c0 .6.4 1 1 1h2c.6 0 1-.4 1-1V5Z" vector-effect="non-scaling-stroke" fill="none" stroke="#f1f5f9"/>
          </g>
        </g>
      </g>
    </g>
    <g transform="translate(960.0, 540.0)">
      <line x1="0" y1="0" x2="-120" y2="0" stroke="var(--muted-text)" stroke-width="2"/>
      <g transform="translate(-500.0, -85.0)">
        <rect id="ITEM_3_BG" x="-3" y="0" width="380" height="170" rx="18" fill="var(--panel)" stroke="var(--accent-3)" stroke-width="2"/>
        <text id="ITEM_3_HEAD" text-anchor="end" font-weight="bold" font-size="30" fill="var(--primary-text)" x="230.0" y="30.0" data-bg-id="ITEM_3_BG" fill-opacity="1.0" style="font-size: 29px; font-family: Inter, Segoe UI, Kalam, Roboto, Helvetica, Arial, sans-serif; font-weight: 700; letter-spacing:-0.4px;" data-final-font-size="29">
          <tspan x="230.0" dy="31.98px">Technology Scope</tspan>
        </text>
        <rect id="ITEM_3_HEAD_FRAME" x="0" y="30" width="230" height="48" fill="none"/>
        <text id="ITEM_3_BODY" text-anchor="end" font-size="18" fill="var(--primary-text)" x="230.0" y="84.0" data-bg-id="ITEM_3_BG" style="font-size: 23px; font-family: Inter, Segoe UI, Kalam, Roboto, Helvetica, Arial, sans-serif; font-weight: 400;" data-final-font-size="23">
          <tspan x="230.0" dy="18.53px">Covers recovered</tspan>
          <tspan x="230.0" dy="26.45px">technologies of</tspan>
          <tspan x="230.0" dy="26.45px">unknown origin</tspan>
        </text>
        <rect id="ITEM_3_BODY_FRAME" x="0" y="84" width="230" height="80" fill="none"/>
        <circle id="ITEM_3_PAD" cx="330" cy="85.0" r="39" fill="var(--icon-pad-bg)" stroke="var(--primary-text)" opacity="0.9" fill-opacity="0.9" stroke-width="2"/>
        <circle id="ITEM_3_PAD_INNER" cx="330" cy="85.0" r="30.42" fill="var(--accent-1)" fill-opacity="0.22"/>
        <circle cx="330" cy="85.0" r="31.2" fill="none" stroke="var(--accent-2)" stroke-width="3" stroke-dasharray="6 4"/>
        <g id="ITEM_3_ICON" transform="translate(300, 55.0)" data-icon-size="60" stroke-dasharray="6 4">
          <g transform="translate(-4.765714285714288,-5.037321428571431) scale(2.172857142857143)">
            <path d="M4.71839 18.0233C5.11525 17.458 5.8952 17.3215 6.46045 17.7184L18.5318 26.1936L17.0946 28.2406L5.02328 19.7653C4.45803 19.3685 4.32152 18.5885 4.71839 18.0233Z" fill="#5092FF"/>
            <path d="M18.5013 2.80347C18.8302 2.3598 19.4615 2.25982 19.9114 2.58017L21.5841 3.77124C22.034 4.09158 22.1321 4.71094 21.8032 5.15461L13.1102 16.8809C12.4436 17.7801 11.1641 17.9827 10.2523 17.3335C9.34053 16.6842 9.14176 15.429 9.80835 14.5298L18.5013 2.80347Z" fill="#636363"/>
            <path d="M18.0472 3.66594C16.8384 3.31432 15.3804 3.86071 14.5971 4.91739L11.7749 8.7243L11.9999 10.0001L10.6024 10.306L10.3989 10.5805C9.07399 12.3677 9.47824 14.8692 11.3018 16.1677C13.1254 17.4662 15.6778 17.07 17.0027 15.2828L17.1623 15.0675L16.9999 13.5001H18.3242L18.4883 13.2787C21.992 13.9302 23.8684 16.851 23.963 19.8545C24.0149 21.5041 23.5209 23.1307 22.4806 24.3899C21.4537 25.6329 19.8112 26.6185 17.3793 26.8486C16.5451 26.9276 15.9304 27.6956 16.0062 28.564C16.082 29.4325 16.8197 30.0725 17.6539 29.9935C20.7829 29.6974 23.1847 28.3804 24.7802 26.4491C26.3624 24.5339 27.069 22.1145 26.9946 19.751C26.8719 15.8564 24.6058 11.9837 20.5048 10.5586L21.2008 9.61967C21.9842 8.56299 22.0639 7.03517 21.3491 6.01708L18.0472 3.66594Z" fill="#BEBEBE"/>
            <path d="M2 29.2C2 27.4327 3.43269 26 5.2 26H26.8C28.5673 26 30 27.4327 30 29.2C30 29.6418 29.6418 30 29.2 30H2.8C2.35817 30 2 29.6418 2 29.2Z" fill="#9B9B9B"/>
            <path d="M11.7757 8.70947L18.3343 13.4746L17.1588 15.0927L10.6001 10.3275L11.7757 8.70947Z" fill="#D3D3D3"/>
          </g>
        </g>
      </g>
      <line x1="0" y1="0" x2="120" y2="0" stroke="var(--muted-text)" stroke-width="2"/>
      <g transform="translate(140.0, -85.0)">
        <rect id="ITEM_4_BG" x="0" y="0" width="380" height="170" rx="18" fill="var(--panel)" stroke="var(--accent-4)" stroke-width="2"/>
        <text id="ITEM_4_HEAD" text-anchor="start" font-weight="bold" font-size="30" fill="var(--primary-text)" x="150.0" y="38.0" data-bg-id="ITEM_4_BG" fill-opacity="1.0" style="font-size: 19px; font-family: Inter, Segoe UI, Kalam, Roboto, Helvetica, Arial, sans-serif; font-weight: 700; letter-spacing:-0.4px;" data-final-font-size="19">
          <tspan x="150.0" dy="25.83px">Biological Evidence</tspan>
        </text>
        <rect id="ITEM_4_HEAD_FRAME" x="150" y="38" width="180" height="45" fill="none"/>
        <text id="ITEM_4_BODY" text-anchor="start" font-size="18" fill="var(--primary-text)" x="150.0" y="84.0" data-bg-id="ITEM_4_BG" style="font-size: 21px; font-family: Inter, Segoe UI, Kalam, Roboto, Helvetica, Arial, sans-serif; font-weight: 400;" data-final-font-size="21">
          <tspan x="150.0" dy="21.48px">Includes non-human</tspan>
          <tspan x="150.0" dy="24.15px">intelligence</tspan>
          <tspan x="150.0" dy="24.15px">biological</tspan>
          <tspan x="150.0" dy="24.15px">material claims</tspan>
        </text>
        <rect id="ITEM_4_BODY_FRAME" x="150" y="84" width="190" height="120" fill="none"/>
        <circle id="ITEM_4_PAD" cx="50" cy="85.0" r="39" fill="var(--icon-pad-bg)" stroke="var(--primary-text)" opacity="0.9" fill-opacity="0.9" stroke-width="2"/>
        <circle id="ITEM_4_PAD_INNER" cx="50" cy="85.0" r="30.42" fill="var(--accent-2)" fill-opacity="0.22"/>
        <circle cx="50" cy="85.0" r="31.2" fill="none" stroke="var(--accent-3)" stroke-width="3" stroke-dasharray="6 4"/>
        <g id="ITEM_4_ICON" transform="translate(20, 55.0)" data-icon-size="60" stroke-dasharray="6 4">
          <g transform="translate(-2.4480000000000004,-2.4480000000000017) scale(0.12675)" vector-effect="non-scaling-stroke" fill="#f1f5f9" fill-opacity="1.0" stroke="none">
            <path fill="#f1f5f9" d="M241.406 16a21.837 20.757 0 0 0-22.47 20.75a21.844 20.763 0 0 0 43.69 0A21.837 20.757 0 0 0 241.405 16zM286 52.594a13.866 13.18 0 0 0-14.125 13.312a13.875 13.188 0 0 0 27.75 0A13.866 13.18 0 0 0 286 52.594M166 92.72l15.125 24.624v307.5C181.125 464.27 214.523 496 256 496s74.875-31.73 74.875-71.156v-307.5L346 92.72zM197.906 125h116.188v108H197.906zm85.594 71.375a13.866 13.18 0 0 0-14.125 13.313a13.866 13.18 0 1 0 27.72 0a13.866 13.18 0 0 0-13.595-13.313m-52.47 64.47c7.66 0 13.845 5.908 13.845 13.186c0 7.28-6.186 13.19-13.844 13.19c-7.656 0-13.874-5.91-13.874-13.19c0-7.278 6.218-13.186 13.875-13.186zM276 282.436c12.06 0 21.844 9.286 21.844 20.75c0 11.463-9.784 20.75-21.844 20.75s-21.844-9.285-21.844-20.75s9.784-20.75 21.844-20.75" vector-effect="non-scaling-stroke" stroke="none"/>
          </g>
        </g>
      </g>
    </g>
    <g transform="translate(960.0, 780.0)">
      <line x1="0" y1="0" x2="-120" y2="0" stroke="var(--muted-text)" stroke-width="2"/>
      <g transform="translate(-500.0, -85.0)">
        <rect id="ITEM_5_BG" x="-3" y="0" width="380" height="170" rx="18" fill="var(--panel)" stroke="var(--accent-5)" stroke-width="2"/>
        <text id="ITEM_5_HEAD" text-anchor="end" font-weight="bold" font-size="30" fill="var(--accent-3)" x="230.0" y="30.0" data-bg-id="ITEM_5_BG" fill-opacity="1.0" style="font-size: 30px; font-family: Inter, Segoe UI, Kalam, Roboto, Helvetica, Arial, sans-serif; font-weight: 700; letter-spacing:-0.4px;" data-final-font-size="30">
          <tspan x="230.0" dy="32.25px">Legal Precedent</tspan>
        </text>
        <rect id="ITEM_5_HEAD_FRAME" x="0" y="30" width="230" height="48" fill="none"/>
        <text id="ITEM_5_BODY" text-anchor="end" font-size="18" fill="var(--primary-text)" x="230.0" y="84.0" data-bg-id="ITEM_5_BG" style="font-size: 23px; font-family: Inter, Segoe UI, Kalam, Roboto, Helvetica, Arial, sans-serif; font-weight: 400;" data-final-font-size="23">
          <tspan x="230.0" dy="18.53px">Uses land</tspan>
          <tspan x="230.0" dy="26.45px">acquisition tools</tspan>
          <tspan x="230.0" dy="26.45px">for advanced tech</tspan>
        </text>
        <rect id="ITEM_5_BODY_FRAME" x="0" y="84" width="230" height="80" fill="none"/>
        <circle id="ITEM_5_PAD" cx="330" cy="85.0" r="39" fill="var(--icon-pad-bg)" stroke="var(--primary-text)" opacity="0.9" fill-opacity="0.9" stroke-width="2"/>
        <circle id="ITEM_5_PAD_INNER" cx="330" cy="85.0" r="30.42" fill="var(--accent-3)" fill-opacity="0.22"/>
        <circle cx="330" cy="85.0" r="31.2" fill="none" stroke="var(--accent-4)" stroke-width="3" stroke-dasharray="6 4"/>
        <g id="ITEM_5_ICON" transform="translate(300, 55.0)" data-icon-size="60" stroke-dasharray="6 4">
          <g transform="translate(-2.9979661016949173,-2.9979661016949173) scale(2.7498305084745764)" vector-effect="non-scaling-stroke" stroke-width="2.43" stroke-linecap="round" stroke-linejoin="round" stroke-opacity="1.0">
            <path d="m14 13-8.381 8.38a1 1 0 0 1-3.001-3l8.384-8.381" vector-effect="non-scaling-stroke" fill="none" stroke="#f1f5f9"/>
            <path d="m16 16 6-6" vector-effect="non-scaling-stroke" fill="none" stroke="#f1f5f9"/>
            <path d="m21.5 10.5-8-8" vector-effect="non-scaling-stroke" fill="none" stroke="#f1f5f9"/>
            <path d="m8 8 6-6" vector-effect="non-scaling-stroke" fill="none" stroke="#f1f5f9"/>
            <path d="m8.5 7.5 8 8" vector-effect="non-scaling-stroke" fill="none" stroke="#f1f5f9"/>
          </g>
        </g>
      </g>
    </g>
  </g>
</svg>
